<?xml version="1.0" encoding="UTF-8"?>
<svg xmlns="http://www.w3.org/2000/svg" width="3950" height="3450" viewBox="0 0 3950 3450">
  <defs>
    <pattern id="grid" width="24" height="24" patternUnits="userSpaceOnUse">
      <path d="M 24 0 L 0 0 0 24" fill="none" stroke="#ececec" stroke-width="1"/>
    </pattern>
    <filter id="shadow" x="-10%" y="-10%" width="120%" height="120%">
      <feDropShadow dx="8" dy="8" stdDeviation="4" flood-color="#c9c9c9" flood-opacity="0.35"/>
    </filter>
  </defs>
  <style>
    text { font-family: Arial, Helvetica, sans-serif; fill: #111; }
    .main-title { font-size: 42px; font-weight: 700; }
    .sub-title { font-size: 20px; fill: #555; }
    .uml-box { fill: #fff; stroke: #202020; stroke-width: 2; filter: url(#shadow); }
    .uml-box.enum { fill: #fbfbfb; }
    .uml-box.domain { fill: #fcfcfc; }
    .uml-sep { stroke: #202020; stroke-width: 1.7; }
    .uml-title { font-size: 24px; font-weight: 700; text-anchor: middle; }
    .stereotype { font-size: 18px; font-style: italic; text-anchor: middle; fill: #4a4a4a; }
    .uml-line { font-size: 19px; }
    .assoc-line { stroke: #121212; stroke-width: 2.1; fill: none; }
    .dep-line { stroke: #555; stroke-width: 1.9; stroke-dasharray: 9 7; fill: none; }
    .nav-line { stroke: #254d7a; stroke-width: 2; stroke-dasharray: 7 5; fill: none; }
    .dep-arrow { stroke: #555; stroke-width: 1.9; fill: none; }
    .nav-arrow { stroke: #254d7a; stroke-width: 2; fill: none; }
    .diamond-open { fill: #fff; stroke: #121212; stroke-width: 1.8; }
    .diamond-filled { fill: #121212; stroke: #121212; stroke-width: 1.8; }
    .mult { font-size: 18px; font-weight: 600; }
    .rel-type { font-size: 16px; font-style: italic; fill: #444; }
    .package-frame { fill: rgba(255,255,255,0.78); stroke: #7b7b7b; stroke-width: 2; }
    .package-title { font-size: 24px; font-weight: 700; fill: #3c3c3c; }
  </style>
  <rect width="100%" height="100%" fill="#fafafa"/>
  <rect width="100%" height="100%" fill="url(#grid)"/>
  <text x="90" y="70" class="main-title">KaayJob - Diagramme De Classes</text>
  <text x="90" y="102" class="sub-title">Modele metier extrait de schema.prisma avec multiplicites et types de relation</text>
  
  
  <line x1="1120" y1="484" x2="1420" y2="544" class="assoc-line"/>
  <polygon points="1120,484 1108,472 1096,484 1108,496" class="diamond-filled"/>
  <text x="1132" y="474" class="mult">1</text>
  <text x="1360" y="534" class="mult">0..1</text>
  <text x="1282" y="506" class="rel-type">compose</text>

  <line x1="840" y1="748" x2="1110" y2="1450" class="assoc-line"/>
  
  <text x="852" y="768" class="mult">1</text>
  <text x="1122" y="1440" class="mult">0..*</text>
  <text x="987" y="1091" class="rel-type">clientBookings</text>

  <line x1="720" y1="748" x2="2110" y2="1450" class="assoc-line"/>
  
  <text x="732" y="768" class="mult">1</text>
  <text x="2122" y="1440" class="mult">0..*</text>
  <text x="1427" y="1091" class="rel-type">reviews</text>

  <line x1="920" y1="748" x2="2725" y2="1450" class="assoc-line"/>
  
  <text x="932" y="768" class="mult">1</text>
  <text x="2737" y="1440" class="mult">0..*</text>
  <text x="1834.5" y="1091" class="rel-type">payments</text>

  <line x1="660" y1="748" x2="860" y2="2630" class="assoc-line"/>
  
  <text x="672" y="768" class="mult">1</text>
  <text x="872" y="2620" class="mult">0..*</text>
  <text x="772" y="1681" class="rel-type">requests</text>

  <line x1="560" y1="484" x2="656" y2="2630" class="assoc-line"/>
  
  <text x="500" y="474" class="mult">0..1</text>
  <text x="668" y="2620" class="mult">0..*</text>
  <text x="620" y="1549" class="rel-type">reviews</text>

  <line x1="850" y1="748" x2="1605" y2="2630" class="assoc-line"/>
  
  <text x="862" y="768" class="mult">1</text>
  <text x="1617" y="2620" class="mult">0..*</text>
  <text x="1239.5" y="1681" class="rel-type">subscriptions</text>

  <line x1="1030" y1="748" x2="3195" y2="2630" class="assoc-line"/>
  
  <text x="1042" y="768" class="mult">1</text>
  <text x="3207" y="2620" class="mult">0..*</text>
  <text x="2124.5" y="1681" class="rel-type">notifications</text>

  <line x1="2030" y1="544" x2="3120" y2="400" class="assoc-line"/>
  <polygon points="2030,544 2018,532 2006,544 2018,556" class="diamond-filled"/>
  <text x="2042" y="534" class="mult">1</text>
  <text x="3060" y="390" class="mult">0..*</text>
  <text x="2587" y="464" class="rel-type">services</text>

  <line x1="1707" y1="868" x2="2008" y2="1450" class="assoc-line"/>
  
  <text x="1719" y="888" class="mult">1</text>
  <text x="2020" y="1440" class="mult">0..*</text>
  <text x="1869.5" y="1151" class="rel-type">providerReviews</text>

    <path d="M 2820 312 C 2970 312, 2970 492, 2820 492" class="assoc-line"/>
    <text x="2840" y="302" class="mult">parent 0..1</text>
    <text x="2840" y="517" class="mult">children 0..*</text>
    <text x="2852" y="404" class="rel-type">hiérarchie</text>

  <line x1="2820" y1="388" x2="3120" y2="400" class="assoc-line"/>
  
  <text x="2832" y="378" class="mult">1</text>
  <text x="3060" y="390" class="mult">0..*</text>
  <text x="2982" y="386" class="rel-type">services</text>

  <line x1="3120" y1="400" x2="1400" y2="1678" class="assoc-line"/>
  
  <text x="3060" y="390" class="mult">1</text>
  <text x="1412" y="1668" class="mult">0..*</text>
  <text x="2272" y="1031" class="rel-type">bookings</text>

  <line x1="3505" y1="580" x2="1870" y2="1450" class="assoc-line"/>
  
  <text x="3517" y="600" class="mult">0..1</text>
  <text x="1882" y="1440" class="mult">0..*</text>
  <text x="2699.5" y="1007" class="rel-type">reviews</text>

  <line x1="1400" y1="1678" x2="1740" y2="1618" class="assoc-line"/>
  <polygon points="1400,1678 1388,1666 1376,1678 1388,1690" class="diamond-filled"/>
  <text x="1412" y="1668" class="mult">1</text>
  <text x="1680" y="1608" class="mult">0..1</text>
  <text x="1582" y="1640" class="rel-type">review</text>

  <line x1="1400" y1="1678" x2="2570" y2="1594" class="assoc-line"/>
  
  <text x="1412" y="1668" class="mult">1</text>
  <text x="2510" y="1584" class="mult">0..*</text>
  <text x="1997" y="1628" class="rel-type">payments</text>

  <line x1="2240" y1="2810" x2="1850" y2="2774" class="assoc-line"/>
  <polygon points="2240,2810 2252,2798 2264,2810 2252,2822" class="diamond-open"/>
  <text x="2180" y="2800" class="mult">1</text>
  <text x="1862" y="2764" class="mult">0..*</text>
  <text x="2057" y="2784" class="rel-type">subscriptions</text>

    <line x1="560" y1="484" x2="340" y2="310" class="dep-line"/>
    <path d="M 350.8836503749326 311.59566742030734 L 340 310 L 344.0599366654889 320.2233514207533" class="dep-arrow"/>
    <text x="460" y="389" class="rel-type">typed by</text>

    <line x1="3120" y1="400" x2="340" y2="550" class="dep-line"/>
    <path d="M 349.2161109856229 543.9947274582513 L 340 550 L 349.808774070615 554.9787499667718" class="dep-arrow"/>
    <text x="1740" y="467" class="rel-type">typed by</text>

    <line x1="820" y1="1678" x2="410" y2="852" class="dep-line"/>
    <path d="M 419.1619564933884 858.0875736721011 L 410 852 L 409.3089847992453 862.9782739076927" class="dep-arrow"/>
    <text x="625" y="1257" class="rel-type">typed by</text>

    <line x1="820" y1="1678" x2="390" y2="1170" class="dep-line"/>
    <path d="M 400.35270705605325 1173.7177219653365 L 390 1170 L 391.9567118618378 1180.8245682911488" class="dep-arrow"/>
    <text x="615" y="1416" class="rel-type">typed by</text>

    <line x1="2570" y1="1594" x2="390" y2="1170" class="dep-line"/>
    <path d="M 400.40110146621214 1166.4199038714637 L 390 1170 L 398.30100492840876 1177.2175700328112" class="dep-arrow"/>
    <text x="1490" y="1374" class="rel-type">typed by</text>
  
  <g>
    <rect x="90" y="220" width="250" height="180" class="uml-box enum domain"/>
    <line x1="90" y1="278" x2="340" y2="278" class="uml-sep"/>
    
    <text x="215" y="254" class="uml-title">Role</text>
    <text x="106" y="306" class="uml-line">CLIENT</text>
<text x="106" y="334" class="uml-line">PRESTATAIRE</text>
<text x="106" y="362" class="uml-line">ADMIN</text>
  </g>

  <g>
    <rect x="90" y="460" width="250" height="180" class="uml-box enum domain"/>
    <line x1="90" y1="518" x2="340" y2="518" class="uml-sep"/>
    
    <text x="215" y="494" class="uml-title">PriceType</text>
    <text x="106" y="546" class="uml-line">FIXED</text>
<text x="106" y="574" class="uml-line">HOURLY</text>
<text x="106" y="602" class="uml-line">QUOTE</text>
  </g>

  <g>
    <rect x="90" y="720" width="320" height="264" class="uml-box enum domain"/>
    <line x1="90" y1="778" x2="410" y2="778" class="uml-sep"/>
    
    <text x="250" y="754" class="uml-title">BookingStatus</text>
    <text x="106" y="806" class="uml-line">PENDING</text>
<text x="106" y="834" class="uml-line">CONFIRMED</text>
<text x="106" y="862" class="uml-line">IN_PROGRESS</text>
<text x="106" y="890" class="uml-line">COMPLETED</text>
<text x="106" y="918" class="uml-line">CANCELLED</text>
<text x="106" y="946" class="uml-line">REJECTED</text>
  </g>

  <g>
    <rect x="90" y="1080" width="300" height="180" class="uml-box enum domain"/>
    <line x1="90" y1="1138" x2="390" y2="1138" class="uml-sep"/>
    
    <text x="240" y="1114" class="uml-title">PaymentStatus</text>
    <text x="106" y="1166" class="uml-line">PENDING</text>
<text x="106" y="1194" class="uml-line">PAID</text>
<text x="106" y="1222" class="uml-line">REFUNDED</text>
  </g>

  <g>
    <rect x="560" y="220" width="560" height="528" class="uml-box class domain"/>
    <line x1="560" y1="278" x2="1120" y2="278" class="uml-sep"/>
    
    <text x="840" y="254" class="uml-title">User</text>
    <text x="576" y="306" class="uml-line">+ id: String</text>
<text x="576" y="330" class="uml-line">+ email: String</text>
<text x="576" y="354" class="uml-line">+ password: String</text>
<text x="576" y="378" class="uml-line">+ firstName: String</text>
<text x="576" y="402" class="uml-line">+ lastName: String</text>
<text x="576" y="426" class="uml-line">+ phone: String</text>
<text x="576" y="450" class="uml-line">+ role: Role</text>
<text x="576" y="474" class="uml-line">+ avatar: String?</text>
<text x="576" y="498" class="uml-line">+ bio: String?</text>
<text x="576" y="522" class="uml-line">+ specialization: String?</text>
<text x="576" y="546" class="uml-line">+ address: String?</text>
<text x="576" y="570" class="uml-line">+ zone: String?</text>
<text x="576" y="594" class="uml-line">+ latitude: Float?</text>
<text x="576" y="618" class="uml-line">+ longitude: Float?</text>
<text x="576" y="642" class="uml-line">+ isVerified: Boolean</text>
<text x="576" y="666" class="uml-line">+ isActive: Boolean</text>
<text x="576" y="690" class="uml-line">+ createdAt: DateTime</text>
<text x="576" y="714" class="uml-line">+ updatedAt: DateTime</text>
  </g>

  <g>
    <rect x="1420" y="220" width="610" height="648" class="uml-box class domain"/>
    <line x1="1420" y1="278" x2="2030" y2="278" class="uml-sep"/>
    
    <text x="1725" y="254" class="uml-title">ProviderProfile</text>
    <text x="1436" y="306" class="uml-line">+ id: String</text>
<text x="1436" y="330" class="uml-line">+ userId: String</text>
<text x="1436" y="354" class="uml-line">+ businessName: String?</text>
<text x="1436" y="378" class="uml-line">+ specialty: String?</text>
<text x="1436" y="402" class="uml-line">+ bio: String?</text>
<text x="1436" y="426" class="uml-line">+ hourlyRate: Decimal?</text>
<text x="1436" y="450" class="uml-line">+ yearsExperience: Int?</text>
<text x="1436" y="474" class="uml-line">+ location: String?</text>
<text x="1436" y="498" class="uml-line">+ address: String?</text>
<text x="1436" y="522" class="uml-line">+ city: String?</text>
<text x="1436" y="546" class="uml-line">+ region: String?</text>
<text x="1436" y="570" class="uml-line">+ postalCode: String?</text>
<text x="1436" y="594" class="uml-line">+ serviceRadius: Int?</text>
<text x="1436" y="618" class="uml-line">+ isAvailable: Boolean</text>
<text x="1436" y="642" class="uml-line">+ rating: Decimal</text>
<text x="1436" y="666" class="uml-line">+ totalReviews: Int</text>
<text x="1436" y="690" class="uml-line">+ totalBookings: Int</text>
<text x="1436" y="714" class="uml-line">+ isVerified: Boolean</text>
<text x="1436" y="738" class="uml-line">+ profileImage: String?</text>
<text x="1436" y="762" class="uml-line">+ specialties: Json?</text>
<text x="1436" y="786" class="uml-line">+ availability: Json?</text>
<text x="1436" y="810" class="uml-line">+ createdAt: DateTime</text>
<text x="1436" y="834" class="uml-line">+ updatedAt: DateTime</text>
  </g>

  <g>
    <rect x="2320" y="220" width="500" height="336" class="uml-box class domain"/>
    <line x1="2320" y1="278" x2="2820" y2="278" class="uml-sep"/>
    
    <text x="2570" y="254" class="uml-title">Category</text>
    <text x="2336" y="306" class="uml-line">+ id: String</text>
<text x="2336" y="330" class="uml-line">+ name: String</text>
<text x="2336" y="354" class="uml-line">+ slug: String</text>
<text x="2336" y="378" class="uml-line">+ description: String?</text>
<text x="2336" y="402" class="uml-line">+ icon: String?</text>
<text x="2336" y="426" class="uml-line">+ image: String?</text>
<text x="2336" y="450" class="uml-line">+ isActive: Boolean</text>
<text x="2336" y="474" class="uml-line">+ displayOrder: Int</text>
<text x="2336" y="498" class="uml-line">+ parentId: String?</text>
<text x="2336" y="522" class="uml-line">+ createdAt: DateTime</text>
  </g>

  <g>
    <rect x="3120" y="220" width="530" height="360" class="uml-box class domain"/>
    <line x1="3120" y1="278" x2="3650" y2="278" class="uml-sep"/>
    
    <text x="3385" y="254" class="uml-title">Service</text>
    <text x="3136" y="306" class="uml-line">+ id: String</text>
<text x="3136" y="330" class="uml-line">+ providerId: String</text>
<text x="3136" y="354" class="uml-line">+ categoryId: String?</text>
<text x="3136" y="378" class="uml-line">+ name: String</text>
<text x="3136" y="402" class="uml-line">+ description: String?</text>
<text x="3136" y="426" class="uml-line">+ price: Decimal</text>
<text x="3136" y="450" class="uml-line">+ priceType: PriceType</text>
<text x="3136" y="474" class="uml-line">+ duration: Int?</text>
<text x="3136" y="498" class="uml-line">+ isActive: Boolean</text>
<text x="3136" y="522" class="uml-line">+ createdAt: DateTime</text>
<text x="3136" y="546" class="uml-line">+ updatedAt: DateTime</text>
  </g>

  <g>
    <rect x="820" y="1450" width="580" height="456" class="uml-box class domain"/>
    <line x1="820" y1="1508" x2="1400" y2="1508" class="uml-sep"/>
    
    <text x="1110" y="1484" class="uml-title">Booking</text>
    <text x="836" y="1536" class="uml-line">+ id: String</text>
<text x="836" y="1560" class="uml-line">+ clientId: String</text>
<text x="836" y="1584" class="uml-line">+ serviceId: String</text>
<text x="836" y="1608" class="uml-line">+ bookingDate: DateTime</text>
<text x="836" y="1632" class="uml-line">+ bookingTime: String</text>
<text x="836" y="1656" class="uml-line">+ duration: Int</text>
<text x="836" y="1680" class="uml-line">+ status: BookingStatus</text>
<text x="836" y="1704" class="uml-line">+ address: String</text>
<text x="836" y="1728" class="uml-line">+ city: String</text>
<text x="836" y="1752" class="uml-line">+ phone: String?</text>
<text x="836" y="1776" class="uml-line">+ notes: String?</text>
<text x="836" y="1800" class="uml-line">+ totalAmount: Decimal?</text>
<text x="836" y="1824" class="uml-line">+ paymentStatus: PaymentStatus</text>
<text x="836" y="1848" class="uml-line">+ createdAt: DateTime</text>
<text x="836" y="1872" class="uml-line">+ updatedAt: DateTime</text>
  </g>

  <g>
    <rect x="1740" y="1450" width="500" height="336" class="uml-box class domain"/>
    <line x1="1740" y1="1508" x2="2240" y2="1508" class="uml-sep"/>
    
    <text x="1990" y="1484" class="uml-title">Review</text>
    <text x="1756" y="1536" class="uml-line">+ id: String</text>
<text x="1756" y="1560" class="uml-line">+ bookingId: String</text>
<text x="1756" y="1584" class="uml-line">+ clientId: String</text>
<text x="1756" y="1608" class="uml-line">+ providerId: String</text>
<text x="1756" y="1632" class="uml-line">+ serviceId: String?</text>
<text x="1756" y="1656" class="uml-line">+ rating: Int</text>
<text x="1756" y="1680" class="uml-line">+ comment: String?</text>
<text x="1756" y="1704" class="uml-line">+ isVerified: Boolean</text>
<text x="1756" y="1728" class="uml-line">+ createdAt: DateTime</text>
<text x="1756" y="1752" class="uml-line">+ updatedAt: DateTime</text>
  </g>

  <g>
    <rect x="2570" y="1450" width="470" height="288" class="uml-box class domain"/>
    <line x1="2570" y1="1508" x2="3040" y2="1508" class="uml-sep"/>
    
    <text x="2805" y="1484" class="uml-title">Payment</text>
    <text x="2586" y="1536" class="uml-line">+ id: String</text>
<text x="2586" y="1560" class="uml-line">+ bookingId: String?</text>
<text x="2586" y="1584" class="uml-line">+ userId: String</text>
<text x="2586" y="1608" class="uml-line">+ amount: Decimal</text>
<text x="2586" y="1632" class="uml-line">+ paymentMethod: String?</text>
<text x="2586" y="1656" class="uml-line">+ status: PaymentStatus</text>
<text x="2586" y="1680" class="uml-line">+ transactionId: String?</text>
<text x="2586" y="1704" class="uml-line">+ createdAt: DateTime</text>
  </g>

  <g>
    <rect x="420" y="2630" width="520" height="264" class="uml-box class domain"/>
    <line x1="420" y1="2688" x2="940" y2="2688" class="uml-sep"/>
    
    <text x="680" y="2664" class="uml-title">VerificationRequest</text>
    <text x="436" y="2716" class="uml-line">+ id: String</text>
<text x="436" y="2740" class="uml-line">+ userId: String</text>
<text x="436" y="2764" class="uml-line">+ documents: Json?</text>
<text x="436" y="2788" class="uml-line">+ status: String</text>
<text x="436" y="2812" class="uml-line">+ reviewedBy: String?</text>
<text x="436" y="2836" class="uml-line">+ reviewedAt: DateTime?</text>
<text x="436" y="2860" class="uml-line">+ createdAt: DateTime</text>
  </g>

  <g>
    <rect x="1380" y="2630" width="470" height="288" class="uml-box class domain"/>
    <line x1="1380" y1="2688" x2="1850" y2="2688" class="uml-sep"/>
    
    <text x="1615" y="2664" class="uml-title">Subscription</text>
    <text x="1396" y="2716" class="uml-line">+ id: String</text>
<text x="1396" y="2740" class="uml-line">+ userId: String</text>
<text x="1396" y="2764" class="uml-line">+ plan: String</text>
<text x="1396" y="2788" class="uml-line">+ status: String</text>
<text x="1396" y="2812" class="uml-line">+ startDate: DateTime</text>
<text x="1396" y="2836" class="uml-line">+ endDate: DateTime</text>
<text x="1396" y="2860" class="uml-line">+ subscriptionPlanId: String?</text>
<text x="1396" y="2884" class="uml-line">+ createdAt: DateTime</text>
  </g>

  <g>
    <rect x="2240" y="2630" width="540" height="360" class="uml-box class domain"/>
    <line x1="2240" y1="2688" x2="2780" y2="2688" class="uml-sep"/>
    
    <text x="2510" y="2664" class="uml-title">SubscriptionPlan</text>
    <text x="2256" y="2716" class="uml-line">+ id: String</text>
<text x="2256" y="2740" class="uml-line">+ name: String</text>
<text x="2256" y="2764" class="uml-line">+ slug: String</text>
<text x="2256" y="2788" class="uml-line">+ description: String?</text>
<text x="2256" y="2812" class="uml-line">+ price: Decimal</text>
<text x="2256" y="2836" class="uml-line">+ duration: Int</text>
<text x="2256" y="2860" class="uml-line">+ features: Json</text>
<text x="2256" y="2884" class="uml-line">+ isActive: Boolean</text>
<text x="2256" y="2908" class="uml-line">+ displayOrder: Int</text>
<text x="2256" y="2932" class="uml-line">+ createdAt: DateTime</text>
<text x="2256" y="2956" class="uml-line">+ updatedAt: DateTime</text>
  </g>

  <g>
    <rect x="3150" y="2630" width="470" height="288" class="uml-box class domain"/>
    <line x1="3150" y1="2688" x2="3620" y2="2688" class="uml-sep"/>
    
    <text x="3385" y="2664" class="uml-title">Notification</text>
    <text x="3166" y="2716" class="uml-line">+ id: String</text>
<text x="3166" y="2740" class="uml-line">+ userId: String</text>
<text x="3166" y="2764" class="uml-line">+ title: String</text>
<text x="3166" y="2788" class="uml-line">+ message: String</text>
<text x="3166" y="2812" class="uml-line">+ type: String</text>
<text x="3166" y="2836" class="uml-line">+ read: Boolean</text>
<text x="3166" y="2860" class="uml-line">+ link: String?</text>
<text x="3166" y="2884" class="uml-line">+ createdAt: DateTime</text>
  </g>
</svg>