<?xml version="1.0" encoding="UTF-8"?>
<svg xmlns="http://www.w3.org/2000/svg" width="5200" height="3600" viewBox="0 0 5200 3600">
  <defs>
    <pattern id="grid" width="24" height="24" patternUnits="userSpaceOnUse">
      <path d="M 24 0 L 0 0 0 24" fill="none" stroke="#ececec" stroke-width="1"/>
    </pattern>
    <filter id="shadow" x="-10%" y="-10%" width="120%" height="120%">
      <feDropShadow dx="8" dy="8" stdDeviation="4" flood-color="#c9c9c9" flood-opacity="0.35"/>
    </filter>
  </defs>
  <style>
    text { font-family: Arial, Helvetica, sans-serif; fill: #111; }
    .main-title { font-size: 40px; font-weight: 700; }
    .sub-title { font-size: 20px; fill: #555; }
    .uml-box { fill: #fff; stroke: #111; stroke-width: 2.1; filter: url(#shadow); }
    .enum { fill: #fcfcfc; }
    .sep { stroke: #111; stroke-width: 1.7; }
    .title { font-size: 26px; font-weight: 700; text-anchor: middle; }
    .stereo { font-size: 18px; font-style: italic; text-anchor: middle; fill: #444; }
    .line { font-size: 21px; }
    .assoc { stroke: #111; stroke-width: 2; fill: none; }
    .nav { stroke: #111; stroke-width: 2; fill: none; }
    .diamond-open { fill: #fff; stroke: #111; stroke-width: 1.7; }
    .diamond-filled { fill: #111; stroke: #111; stroke-width: 1.7; }
    .mult { font-size: 19px; font-weight: 600; }
    .reltype { font-size: 17px; font-style: italic; fill: #444; }
  </style>
  <rect width="100%" height="100%" fill="#fbfbfb"/>
  <rect width="100%" height="100%" fill="url(#grid)"/>
  <text x="70" y="60" class="main-title">KaayJob - Diagramme De Conception</text>
  <text x="70" y="92" class="sub-title">Classes metier, attributs, methodes, navigabilite, multiplicites et enumerations</text>
  
  <line x1="1060" y1="488" x2="1460" y2="446" class="assoc"/>
  <polygon points="1060,488 1048,476 1036,488 1048,500" class="diamond-filled"/>
  <path d="M 1450.2910689289067 453.0524220985956 L 1460 446 L 1449.0379577688589 441.118030098139" class="assoc"/>
  <text x="1072" y="478" class="mult">1</text>
  <text x="1402" y="436" class="mult">0..1</text>
  <text x="1268" y="459" class="reltype">possède</text>

  <line x1="780" y1="776" x2="1215" y2="1220" class="assoc"/>
  
  <path d="M 1203.4412962405902 1216.7756601602493 L 1215 1220 L 1212.0130083319534 1208.3776989896571" class="assoc"/>
  <text x="792" y="796" class="mult">1</text>
  <text x="1227" y="1210" class="mult">0..*</text>
  <text x="1005.5" y="990" class="reltype">effectue</text>

  <line x1="660" y1="776" x2="2240" y2="1260" class="assoc"/>
  
  <path d="M 2228.3060838919414 1262.693014306997 L 2240 1260 L 2231.8208231433564 1251.2192787341958" class="assoc"/>
  <text x="672" y="796" class="mult">1</text>
  <text x="2252" y="1250" class="mult">0..*</text>
  <text x="1458" y="1010" class="reltype">rédige</text>

  <line x1="860" y1="776" x2="2925" y2="1260" class="assoc"/>
  
  <path d="M 2913.512709670953 1263.4701816805734 L 2925 1260 L 2916.2510893443527 1251.786805594685" class="assoc"/>
  <text x="872" y="796" class="mult">1</text>
  <text x="2937" y="1250" class="mult">0..*</text>
  <text x="1900.5" y="1010" class="reltype">réalise</text>

  <line x1="600" y1="776" x2="990" y2="2550" class="assoc"/>
  
  <path d="M 981.9085581158342 2541.1383653745393 L 990 2550 L 993.628679762622 2538.5617884623366" class="assoc"/>
  <text x="612" y="796" class="mult">1</text>
  <text x="1002" y="2540" class="mult">0..*</text>
  <text x="803" y="1655" class="reltype">soumet</text>

  <line x1="770" y1="776" x2="1825" y2="2550" class="assoc"/>
  
  <path d="M 1814.5310712541054 2544.1347181727233 L 1825 2550 L 1824.8450186898297 2538.0010008420077" class="assoc"/>
  <text x="782" y="796" class="mult">1</text>
  <text x="1837" y="2540" class="mult">0..*</text>
  <text x="1305.5" y="1655" class="reltype">souscrit</text>

  <line x1="950" y1="776" x2="3355" y2="2550" class="assoc"/>
  
  <path d="M 3343.075102726748 2548.6595429800295 L 3355 2550 L 3350.1984211953495 2539.0025075138587" class="assoc"/>
  <text x="962" y="796" class="mult">1</text>
  <text x="3367" y="2540" class="mult">0..*</text>
  <text x="2160.5" y="1655" class="reltype">reçoit</text>

  <line x1="2070" y1="446" x2="3280" y2="446" class="assoc"/>
  <polygon points="2070,446 2058,434 2046,446 2058,458" class="diamond-filled"/>
  <path d="M 3269.6076951545865 452 L 3280 446 L 3269.6076951545865 440" class="assoc"/>
  <text x="2082" y="436" class="mult">1</text>
  <text x="3222" y="436" class="mult">0..*</text>
  <text x="2683" y="438" class="reltype">propose</text>

  <line x1="1783" y1="692" x2="2102" y2="1260" class="assoc"/>
  
  <path d="M 2091.6796962166504 1253.8769836012482 L 2102 1260 L 2102.142535857433 1248.000846549471" class="assoc"/>
  <text x="1795" y="712" class="mult">1</text>
  <text x="2114" y="1250" class="mult">0..*</text>
  <text x="1950.5" y="968" class="reltype">reçoit</text>

  <path d="M 2940 310 C 3090 310, 3090 490, 2940 490" class="assoc"/>
  <text x="2958" y="300" class="mult">parent 0..1</text>
  <text x="2958" y="515" class="mult">enfants 0..*</text>
  <text x="2976" y="404" class="reltype">hiérarchie</text>

  <line x1="2940" y1="424" x2="3280" y2="446" class="assoc"/>
  
  <path d="M 3269.2419574981395 451.31643880131867 L 3280 446 L 3270.0168076894624 439.3414812990556" class="assoc"/>
  <text x="2952" y="414" class="mult">1</text>
  <text x="3222" y="436" class="mult">0..*</text>
  <text x="3118" y="427" class="reltype">classe</text>

  <line x1="3280" y1="446" x2="1510" y2="1536" class="assoc"/>
  
  <path d="M 1515.7027810270088 1525.4416720756558 L 1510 1536 L 1521.9951707174732 1535.6595892794373" class="assoc"/>
  <text x="3222" y="436" class="mult">1</text>
  <text x="1522" y="1526" class="mult">0..*</text>
  <text x="2403" y="983" class="reltype">concerne</text>

  <line x1="3640" y1="692" x2="2010" y2="1260" class="assoc"/>
  
  <path d="M 2017.8391886255163 1250.9144553441429 L 2010 1260 L 2021.7879067919484 1262.2461641668265" class="assoc"/>
  <text x="3652" y="712" class="mult">0..1</text>
  <text x="2022" y="1250" class="mult">0..*</text>
  <text x="2833" y="968" class="reltype">reçoit</text>

  <line x1="1510" y1="1536" x2="1870" y2="1464" class="assoc"/>
  <polygon points="1510,1536 1498,1524 1486,1536 1498,1548" class="diamond-filled"/>
  <path d="M 1860.9862035035278 1471.9215827156058 L 1870 1464 L 1858.6328098818694 1460.1546146073147" class="assoc"/>
  <text x="1522" y="1526" class="mult">1</text>
  <text x="1812" y="1454" class="mult">0..1</text>
  <text x="1698" y="1492" class="reltype">génère</text>

  <line x1="1510" y1="1536" x2="2770" y2="1450" class="assoc"/>
  
  <path d="M 2760.040390946391 1456.6937424135733 L 2770 1450 L 2759.2232444966517 1444.7215967546" class="assoc"/>
  <text x="1522" y="1526" class="mult">1</text>
  <text x="2712" y="1440" class="mult">0..*</text>
  <text x="2148" y="1485" class="reltype">déclenche</text>

  <line x1="2430" y1="2740" x2="2040" y2="2726" class="assoc"/>
  <polygon points="2430,2740 2442,2728 2454,2740 2442,2752" class="diamond-open"/>
  <path d="M 2050.6008613875033 2720.3766791090193 L 2040 2726 L 2050.1703694389726 2732.368954818085" class="assoc"/>
  <text x="2372" y="2730" class="mult">1</text>
  <text x="2052" y="2716" class="mult">0..*</text>
  <text x="2243" y="2725" class="reltype">définit</text>

    <line x1="500" y1="488" x2="370" y2="308" class="nav"/>
    <path d="M 380.9486716900597 312.91188235030984 L 370 308 L 371.22052094926113 319.9377689964421" class="nav"/>
    <text x="442" y="478" class="mult">*</text>
    <text x="382" y="298" class="mult">1</text>

    <line x1="3780" y1="446" x2="4020" y2="328" class="nav"/>
    <path d="M 4013.321286715496 337.96969351903016 L 4020 328 L 4008.0266355023227 327.20091139054216" class="nav"/>
    <text x="3792" y="436" class="mult">*</text>
    <text x="3962" y="318" class="mult">1</text>

    <line x1="920" y1="1536" x2="440" y2="1196" class="nav"/>
    <path d="M 451.9484792136106 1197.1107855247144 L 440 1196 L 445.0122711242465 1206.9030792979343" class="nav"/>
    <text x="862" y="1526" class="mult">*</text>
    <text x="452" y="1186" class="mult">1</text>

    <line x1="3240" y1="1450" x2="3520" y2="1308" class="nav"/>
    <path d="M 3513.4452885928217 1318.0516545090154 L 3520 1308 L 3508.017656141539 1307.3492806614158" class="nav"/>
    <text x="3252" y="1440" class="mult">*</text>
    <text x="3462" y="1298" class="mult">1</text>

    <line x1="1510" y1="1536" x2="3520" y2="1308" class="nav"/>
    <path d="M 3510.3501759240335 1315.1330845573916 L 3520 1308 L 3508.997655527973 1303.2095494868584" class="nav"/>
    <text x="1522" y="1526" class="mult">*</text>
    <text x="3462" y="1298" class="mult">1</text>
  
  <g>
    <rect x="500" y="200" width="560" height="576" class="uml-box"/>
    <line x1="500" y1="256" x2="1060" y2="256" class="sep"/>
    <line x1="500" y1="622" x2="1060" y2="622" class="sep"/>
    <text x="780" y="236" class="title">Utilisateur</text>
    <text x="516" y="286" class="line">-id: UUID</text>
<text x="516" y="314" class="line">-email: String</text>
<text x="516" y="342" class="line">-motDePasse: String</text>
<text x="516" y="370" class="line">-prenom: String</text>
<text x="516" y="398" class="line">-nom: String</text>
<text x="516" y="426" class="line">-telephone: String</text>
<text x="516" y="454" class="line">-role: Role</text>
<text x="516" y="482" class="line">-adresse: String?</text>
<text x="516" y="510" class="line">-latitude: Float?</text>
<text x="516" y="538" class="line">-longitude: Float?</text>
<text x="516" y="566" class="line">-estVerifie: Boolean</text>
<text x="516" y="594" class="line">-estActif: Boolean</text>
    <text x="516" y="640" class="line">+sInscrire()</text>
<text x="516" y="668" class="line">+seConnecter()</text>
<text x="516" y="696" class="line">+modifierProfil()</text>
<text x="516" y="724" class="line">+changerMotDePasse()</text>
<text x="516" y="752" class="line">+consulterNotifications()</text>
  </g>

  <g>
    <rect x="1460" y="200" width="610" height="492" class="uml-box"/>
    <line x1="1460" y1="256" x2="2070" y2="256" class="sep"/>
    <line x1="1460" y1="566" x2="2070" y2="566" class="sep"/>
    <text x="1765" y="236" class="title">ProfilPrestataire</text>
    <text x="1476" y="286" class="line">-id: UUID</text>
<text x="1476" y="314" class="line">-userId: UUID</text>
<text x="1476" y="342" class="line">-nomEntreprise: String?</text>
<text x="1476" y="370" class="line">-specialite: String?</text>
<text x="1476" y="398" class="line">-tarifHoraire: Decimal?</text>
<text x="1476" y="426" class="line">-rayonService: Int?</text>
<text x="1476" y="454" class="line">-estDisponible: Boolean</text>
<text x="1476" y="482" class="line">-noteMoyenne: Decimal</text>
<text x="1476" y="510" class="line">-totalAvis: Int</text>
<text x="1476" y="538" class="line">-totalReservations: Int</text>
    <text x="1476" y="584" class="line">+mettreAJourDisponibilite()</text>
<text x="1476" y="612" class="line">+mettreAJourLocalisation()</text>
<text x="1476" y="640" class="line">+demanderVerification()</text>
<text x="1476" y="668" class="line">+calculerNoteMoyenne()</text>
  </g>

  <g>
    <rect x="2490" y="220" width="450" height="408" class="uml-box"/>
    <line x1="2490" y1="276" x2="2940" y2="276" class="sep"/>
    <line x1="2490" y1="502" x2="2940" y2="502" class="sep"/>
    <text x="2715" y="256" class="title">Categorie</text>
    <text x="2506" y="306" class="line">-id: UUID</text>
<text x="2506" y="334" class="line">-nom: String</text>
<text x="2506" y="362" class="line">-slug: String</text>
<text x="2506" y="390" class="line">-description: String?</text>
<text x="2506" y="418" class="line">-estActive: Boolean</text>
<text x="2506" y="446" class="line">-ordreAffichage: Int</text>
<text x="2506" y="474" class="line">-parentId: UUID?</text>
    <text x="2506" y="520" class="line">+ajouterSousCategorie()</text>
<text x="2506" y="548" class="line">+modifierCategorie()</text>
<text x="2506" y="576" class="line">+activer()</text>
<text x="2506" y="604" class="line">+desactiver()</text>
  </g>

  <g>
    <rect x="3280" y="200" width="500" height="492" class="uml-box"/>
    <line x1="3280" y1="256" x2="3780" y2="256" class="sep"/>
    <line x1="3280" y1="538" x2="3780" y2="538" class="sep"/>
    <text x="3530" y="236" class="title">Service</text>
    <text x="3296" y="286" class="line">-id: UUID</text>
<text x="3296" y="314" class="line">-providerId: UUID</text>
<text x="3296" y="342" class="line">-categoryId: UUID?</text>
<text x="3296" y="370" class="line">-nom: String</text>
<text x="3296" y="398" class="line">-description: String?</text>
<text x="3296" y="426" class="line">-prix: Decimal</text>
<text x="3296" y="454" class="line">-typePrix: TypePrix</text>
<text x="3296" y="482" class="line">-duree: Int?</text>
<text x="3296" y="510" class="line">-estActif: Boolean</text>
    <text x="3296" y="556" class="line">+creer()</text>
<text x="3296" y="584" class="line">+modifier()</text>
<text x="3296" y="612" class="line">+activer()</text>
<text x="3296" y="640" class="line">+desactiver()</text>
<text x="3296" y="668" class="line">+calculerPrix()</text>
  </g>

  <g>
    <rect x="920" y="1220" width="590" height="632" class="uml-box"/>
    <line x1="920" y1="1276" x2="1510" y2="1276" class="sep"/>
    <line x1="920" y1="1670" x2="1510" y2="1670" class="sep"/>
    <text x="1215" y="1256" class="title">Reservation</text>
    <text x="936" y="1306" class="line">-id: UUID</text>
<text x="936" y="1334" class="line">-clientId: UUID</text>
<text x="936" y="1362" class="line">-serviceId: UUID</text>
<text x="936" y="1390" class="line">-dateReservation: DateTime</text>
<text x="936" y="1418" class="line">-heureReservation: String</text>
<text x="936" y="1446" class="line">-duree: Int</text>
<text x="936" y="1474" class="line">-statut: StatutReservation</text>
<text x="936" y="1502" class="line">-adresse: String</text>
<text x="936" y="1530" class="line">-ville: String</text>
<text x="936" y="1558" class="line">-telephone: String?</text>
<text x="936" y="1586" class="line">-notes: String?</text>
<text x="936" y="1614" class="line">-montantTotal: Decimal?</text>
<text x="936" y="1642" class="line">-statutPaiement: StatutPaiement</text>
    <text x="936" y="1688" class="line">+creer()</text>
<text x="936" y="1716" class="line">+confirmer()</text>
<text x="936" y="1744" class="line">+rejeter()</text>
<text x="936" y="1772" class="line">+annuler()</text>
<text x="936" y="1800" class="line">+terminer()</text>
<text x="936" y="1828" class="line">+calculerMontant()</text>
  </g>

  <g>
    <rect x="1870" y="1260" width="500" height="408" class="uml-box"/>
    <line x1="1870" y1="1316" x2="2370" y2="1316" class="sep"/>
    <line x1="1870" y1="1570" x2="2370" y2="1570" class="sep"/>
    <text x="2120" y="1296" class="title">Avis</text>
    <text x="1886" y="1346" class="line">-id: UUID</text>
<text x="1886" y="1374" class="line">-bookingId: UUID</text>
<text x="1886" y="1402" class="line">-clientId: UUID</text>
<text x="1886" y="1430" class="line">-providerId: UUID</text>
<text x="1886" y="1458" class="line">-serviceId: UUID?</text>
<text x="1886" y="1486" class="line">-note: Int</text>
<text x="1886" y="1514" class="line">-commentaire: String?</text>
<text x="1886" y="1542" class="line">-estVerifie: Boolean</text>
    <text x="1886" y="1588" class="line">+publier()</text>
<text x="1886" y="1616" class="line">+modifier()</text>
<text x="1886" y="1644" class="line">+supprimer()</text>
  </g>

  <g>
    <rect x="2770" y="1260" width="470" height="380" class="uml-box"/>
    <line x1="2770" y1="1316" x2="3240" y2="1316" class="sep"/>
    <line x1="2770" y1="1542" x2="3240" y2="1542" class="sep"/>
    <text x="3005" y="1296" class="title">Paiement</text>
    <text x="2786" y="1346" class="line">-id: UUID</text>
<text x="2786" y="1374" class="line">-bookingId: UUID?</text>
<text x="2786" y="1402" class="line">-userId: UUID</text>
<text x="2786" y="1430" class="line">-montant: Decimal</text>
<text x="2786" y="1458" class="line">-methodePaiement: String?</text>
<text x="2786" y="1486" class="line">-statut: StatutPaiement</text>
<text x="2786" y="1514" class="line">-transactionId: String?</text>
    <text x="2786" y="1560" class="line">+initierPaiement()</text>
<text x="2786" y="1588" class="line">+marquerPaye()</text>
<text x="2786" y="1616" class="line">+rembourser()</text>
  </g>

  <g>
    <rect x="560" y="2550" width="500" height="352" class="uml-box"/>
    <line x1="560" y1="2606" x2="1060" y2="2606" class="sep"/>
    <line x1="560" y1="2804" x2="1060" y2="2804" class="sep"/>
    <text x="810" y="2586" class="title">DemandeVerification</text>
    <text x="576" y="2636" class="line">-id: UUID</text>
<text x="576" y="2664" class="line">-userId: UUID</text>
<text x="576" y="2692" class="line">-documents: Json?</text>
<text x="576" y="2720" class="line">-statut: String</text>
<text x="576" y="2748" class="line">-reviewedBy: UUID?</text>
<text x="576" y="2776" class="line">-reviewedAt: DateTime?</text>
    <text x="576" y="2822" class="line">+soumettre()</text>
<text x="576" y="2850" class="line">+valider()</text>
<text x="576" y="2878" class="line">+rejeter()</text>
  </g>

  <g>
    <rect x="1590" y="2550" width="450" height="352" class="uml-box"/>
    <line x1="1590" y1="2606" x2="2040" y2="2606" class="sep"/>
    <line x1="1590" y1="2804" x2="2040" y2="2804" class="sep"/>
    <text x="1815" y="2586" class="title">Abonnement</text>
    <text x="1606" y="2636" class="line">-id: UUID</text>
<text x="1606" y="2664" class="line">-userId: UUID</text>
<text x="1606" y="2692" class="line">-plan: String</text>
<text x="1606" y="2720" class="line">-statut: String</text>
<text x="1606" y="2748" class="line">-dateDebut: DateTime</text>
<text x="1606" y="2776" class="line">-dateFin: DateTime</text>
    <text x="1606" y="2822" class="line">+activer()</text>
<text x="1606" y="2850" class="line">+renouveler()</text>
<text x="1606" y="2878" class="line">+annuler()</text>
  </g>

  <g>
    <rect x="2430" y="2550" width="500" height="380" class="uml-box"/>
    <line x1="2430" y1="2606" x2="2930" y2="2606" class="sep"/>
    <line x1="2430" y1="2832" x2="2930" y2="2832" class="sep"/>
    <text x="2680" y="2586" class="title">PlanAbonnement</text>
    <text x="2446" y="2636" class="line">-id: UUID</text>
<text x="2446" y="2664" class="line">-nom: String</text>
<text x="2446" y="2692" class="line">-slug: String</text>
<text x="2446" y="2720" class="line">-prix: Decimal</text>
<text x="2446" y="2748" class="line">-duree: Int</text>
<text x="2446" y="2776" class="line">-fonctionnalites: Json</text>
<text x="2446" y="2804" class="line">-estActif: Boolean</text>
    <text x="2446" y="2850" class="line">+creerPlan()</text>
<text x="2446" y="2878" class="line">+modifierPlan()</text>
<text x="2446" y="2906" class="line">+desactiverPlan()</text>
  </g>

  <g>
    <rect x="3300" y="2550" width="450" height="352" class="uml-box"/>
    <line x1="3300" y1="2606" x2="3750" y2="2606" class="sep"/>
    <line x1="3300" y1="2832" x2="3750" y2="2832" class="sep"/>
    <text x="3525" y="2586" class="title">Notification</text>
    <text x="3316" y="2636" class="line">-id: UUID</text>
<text x="3316" y="2664" class="line">-userId: UUID</text>
<text x="3316" y="2692" class="line">-titre: String</text>
<text x="3316" y="2720" class="line">-message: String</text>
<text x="3316" y="2748" class="line">-type: String</text>
<text x="3316" y="2776" class="line">-lu: Boolean</text>
<text x="3316" y="2804" class="line">-lien: String?</text>
    <text x="3316" y="2850" class="line">+marquerCommeLu()</text>
<text x="3316" y="2878" class="line">+supprimer()</text>
  </g>

  <g>
    <rect x="120" y="220" width="250" height="176" class="uml-box enum"/>
    <line x1="120" y1="276" x2="370" y2="276" class="sep"/>
    <text x="245" y="244" class="stereo">&lt;&lt;enumeration&gt;&gt;</text>
    <text x="245" y="268" class="title">Role</text>
    <text x="136" y="314" class="line">CLIENT</text>
<text x="136" y="346" class="line">PRESTATAIRE</text>
<text x="136" y="378" class="line">ADMIN</text>
  </g>

  <g>
    <rect x="4020" y="240" width="280" height="176" class="uml-box enum"/>
    <line x1="4020" y1="296" x2="4300" y2="296" class="sep"/>
    <text x="4160" y="264" class="stereo">&lt;&lt;enumeration&gt;&gt;</text>
    <text x="4160" y="288" class="title">TypePrix</text>
    <text x="4036" y="334" class="line">FIXE</text>
<text x="4036" y="366" class="line">HORAIRE</text>
<text x="4036" y="398" class="line">DEVIS</text>
  </g>

  <g>
    <rect x="120" y="1060" width="320" height="272" class="uml-box enum"/>
    <line x1="120" y1="1116" x2="440" y2="1116" class="sep"/>
    <text x="280" y="1084" class="stereo">&lt;&lt;enumeration&gt;&gt;</text>
    <text x="280" y="1108" class="title">StatutReservation</text>
    <text x="136" y="1154" class="line">EN_ATTENTE</text>
<text x="136" y="1186" class="line">CONFIRMEE</text>
<text x="136" y="1218" class="line">EN_COURS</text>
<text x="136" y="1250" class="line">TERMINEE</text>
<text x="136" y="1282" class="line">ANNULEE</text>
<text x="136" y="1314" class="line">REJETEE</text>
  </g>

  <g>
    <rect x="3520" y="1220" width="300" height="176" class="uml-box enum"/>
    <line x1="3520" y1="1276" x2="3820" y2="1276" class="sep"/>
    <text x="3670" y="1244" class="stereo">&lt;&lt;enumeration&gt;&gt;</text>
    <text x="3670" y="1268" class="title">StatutPaiement</text>
    <text x="3536" y="1314" class="line">EN_ATTENTE</text>
<text x="3536" y="1346" class="line">PAYE</text>
<text x="3536" y="1378" class="line">REMBOURSE</text>
  </g>
</svg>