<?xml version="1.0" encoding="UTF-8"?>
<svg xmlns="http://www.w3.org/2000/svg" width="5600" height="3600" viewBox="0 0 5600 3600">
  <defs>
    <pattern id="grid" width="24" height="24" patternUnits="userSpaceOnUse">
      <path d="M 24 0 L 0 0 0 24" fill="none" stroke="#ececec" stroke-width="1"/>
    </pattern>
  </defs>
  <style>
    text { font-family: Arial, Helvetica, sans-serif; fill: #111; }
    .box { fill:#fff; stroke:#666; stroke-width:2; }
    .box.domain { fill:#fcfcfc; }
    .legend { fill:#fff; stroke:#666; stroke-width:2; }
    .sep { stroke:#666; stroke-width:1.6; }
    .stereo { font-size:18px; font-style:italic; text-anchor:middle; fill:#444; }
    .title { font-size:24px; font-weight:700; text-anchor:middle; }
    .attr { font-size:20px; }
    .assoc { stroke:#111; stroke-width:1.8; fill:none; }
    .dep { stroke:#555; stroke-width:1.5; stroke-dasharray:8 7; fill:none; }
    .filledDiamond { fill:#111; stroke:#111; stroke-width:1.5; }
    .mult { font-size:19px; font-weight:600; }
    .rtype { font-size:16px; fill:#444; font-style:italic; }
    .legendTitle { font-size:22px; font-weight:700; }
    .legendText { font-size:18px; }
    .section { font-size:30px; font-weight:700; fill:#555; }
  </style>
  <rect width="100%" height="100%" fill="#fafafa"/>
  <rect width="100%" height="100%" fill="url(#grid)"/>
  <text x="650" y="70" class="section">Controllers Layer</text>
  <text x="520" y="1050" class="section">Services And Utilities</text>
  <text x="560" y="2080" class="section">Domain Model</text>
  <line x1="1050" y1="2396" x2="1310" y2="2331" class="assoc"/>

<text x="1190" y="2355.5" class="rtype">association</text>
<text x="1062" y="2386" class="mult">1</text>
<text x="1252" y="2321" class="mult">0..1</text>
<line x1="1050" y1="2396" x2="3320" y2="2357" class="assoc"/>

<text x="2195" y="2368.5" class="rtype">association</text>
<text x="1062" y="2386" class="mult">1</text>
<text x="3262" y="2347" class="mult">0..*</text>
<line x1="1050" y1="2396" x2="3990" y2="2292" class="assoc"/>

<text x="2530" y="2336" class="rtype">association</text>
<text x="1062" y="2386" class="mult">1</text>
<text x="3932" y="2282" class="mult">0..*</text>
<line x1="1050" y1="2396" x2="4610" y2="2279" class="assoc"/>

<text x="2840" y="2329.5" class="rtype">association</text>
<text x="1062" y="2386" class="mult">1</text>
<text x="4552" y="2269" class="mult">0..*</text>
<line x1="835" y1="2652" x2="1115" y2="3020" class="assoc"/>

<text x="985" y="2828" class="rtype">association</text>
<text x="847" y="2642" class="mult">1</text>
<text x="1127" y="3010" class="mult">0..*</text>
<line x1="853" y1="2652" x2="1892" y2="3020" class="assoc"/>

<text x="1382.5" y="2828" class="rtype">association</text>
<text x="865" y="2642" class="mult">1</text>
<text x="1904" y="3010" class="mult">0..*</text>
<line x1="817" y1="2652" x2="3433" y2="3020" class="assoc"/>

<text x="2135" y="2828" class="rtype">association</text>
<text x="829" y="2642" class="mult">1</text>
<text x="3445" y="3010" class="mult">0..*</text>
<line x1="1810" y1="2331" x2="2670" y2="2305" class="assoc"/>

<text x="2250" y="2310" class="rtype">association</text>
<text x="1822" y="2321" class="mult">1</text>
<text x="2612" y="2295" class="mult">0..*</text>
<line x1="1810" y1="2331" x2="3990" y2="2292" class="assoc"/>

<text x="2910" y="2303.5" class="rtype">association</text>
<text x="1822" y="2321" class="mult">1</text>
<text x="3932" y="2282" class="mult">0..*</text>
<path d="M 2440 2260 C 2570 2260, 2570 2430, 2440 2430" class="assoc"/><text x="2456" y="2250" class="mult">parent 0..1</text><text x="2456" y="2452" class="mult">children 0..*</text><text x="2476" y="2342" class="rtype">self-association</text>
<line x1="2440" y1="2292" x2="2670" y2="2305" class="assoc"/>

<text x="2565" y="2290.5" class="rtype">association</text>
<text x="2452" y="2282" class="mult">1</text>
<text x="2612" y="2295" class="mult">0..*</text>
<line x1="3090" y1="2305" x2="3320" y2="2357" class="assoc"/>

<text x="3215" y="2323" class="rtype">association</text>
<text x="3102" y="2295" class="mult">1</text>
<text x="3262" y="2347" class="mult">0..*</text>
<line x1="3090" y1="2305" x2="3990" y2="2292" class="assoc"/>

<text x="3550" y="2290.5" class="rtype">association</text>
<text x="3102" y="2295" class="mult">0..1</text>
<text x="3932" y="2282" class="mult">0..*</text>
<line x1="3760" y1="2357" x2="3990" y2="2292" class="assoc"/>
<polygon points="3760,2357 3748,2345 3736,2357 3748,2369" class="filledDiamond"/>
<text x="3885" y="2316.5" class="rtype">composition</text>
<text x="3772" y="2347" class="mult">1</text>
<text x="3932" y="2282" class="mult">0..1</text>
<line x1="3760" y1="2357" x2="4610" y2="2279" class="assoc"/>

<text x="4195" y="2310" class="rtype">association</text>
<text x="3772" y="2347" class="mult">1</text>
<text x="4552" y="2269" class="mult">0..*</text>
<line x1="2440" y1="3172" x2="2100" y2="3159" class="assoc"/>

<text x="2280" y="3157.5" class="rtype">association</text>
<text x="2382" y="3162" class="mult">1</text>
<text x="2112" y="3149" class="mult">0..*</text>
  <line x1="730" y1="346" x2="835" y2="2140" class="dep"/>
<path d="M 828.952790574125 2130.8113516685203 L 835 2140 L 839.9339981685655 2130.1686388494477" class="dep"/>
<text x="790.5" y="1237" class="rtype">&lt;&lt;dependency&gt;&gt;</text>
<line x1="752" y1="346" x2="1538" y2="2140" class="dep"/>
<path d="M 1529.139391075446 2133.481594559548 L 1538 2140 L 1539.214800241321 2129.067284858111" class="dep"/>
<text x="1153" y="1237" class="rtype">&lt;&lt;dependency&gt;&gt;</text>
<line x1="730" y1="346" x2="250" y2="2280" class="dep"/>
<path d="M 246.95666173471332 2269.429375978541 L 250 2280 L 257.632759803794 2272.0790797392233" class="dep"/>
<text x="498" y="1307" class="rtype">&lt;&lt;dependency&gt;&gt;</text>
<line x1="1402" y1="398" x2="2223" y2="2140" class="dep"/>
<path d="M 2213.963593551218 2133.7275715633887 L 2223 2140 L 2223.913879145134 2129.0380282381275" class="dep"/>
<text x="1820.5" y="1263" class="rtype">&lt;&lt;dependency&gt;&gt;</text>
<line x1="1380" y1="398" x2="2880" y2="2140" class="dep"/>
<path d="M 2869.616220332515 2136.3699697222855 L 2880 2140 L 2877.951808603265 2129.1923678818002" class="dep"/>
<text x="2138" y="1263" class="rtype">&lt;&lt;dependency&gt;&gt;</text>
<line x1="2077" y1="372" x2="2858" y2="2140" class="dep"/>
<path d="M 2849.119688862926 2133.5084613450463 L 2858 2140 L 2859.181681816302 2129.063655634307" class="dep"/>
<text x="2475.5" y="1250" class="rtype">&lt;&lt;dependency&gt;&gt;</text>
<line x1="2055" y1="372" x2="2245" y2="2140" class="dep"/>
<path d="M 2238.513596318194 2131.1159374565095 L 2245 2140 L 2249.450622010569 2129.9405783606094" class="dep"/>
<text x="2158" y="1250" class="rtype">&lt;&lt;dependency&gt;&gt;</text>
<line x1="2077" y1="372" x2="1538" y2="2140" class="dep"/>
<path d="M 1535.5170445028698 2129.283893804218 L 1538 2140 L 1546.0389424466337 2132.491644365128" class="dep"/>
<text x="1815.5" y="1250" class="rtype">&lt;&lt;dependency&gt;&gt;</text>
<line x1="2270" y1="246" x2="3990" y2="2292" class="dep"/>
<path d="M 3979.6599328608618 2288.24726612213 L 3990 2292 L 3988.0799293023088 2281.168872241735" class="dep"/>
<text x="3138" y="1263" class="rtype">&lt;&lt;dependency&gt;&gt;</text>
<line x1="2077" y1="372" x2="228" y2="2580" class="dep"/>
<path d="M 229.89937540133087 2569.1652239024143 L 228 2580 L 238.33287904549127 2576.227519300083" class="dep"/>
<text x="1160.5" y="1470" class="rtype">&lt;&lt;dependency&gt;&gt;</text>
<line x1="2760" y1="528" x2="1560" y2="2140" class="dep"/>
<path d="M 1561.2766316002683 2129.074332434254 L 1560 2140 L 1570.100221465374 2135.642761614233" class="dep"/>
<text x="2168" y="1328" class="rtype">&lt;&lt;dependency&gt;&gt;</text>
<line x1="2782" y1="528" x2="2858" y2="2140" class="dep"/>
<path d="M 2852.0574710108767 2130.743307868713 L 2858 2140 L 2863.045266046144 2130.2252728670505" class="dep"/>
<text x="2828" y="1328" class="rtype">&lt;&lt;dependency&gt;&gt;</text>
<line x1="2760" y1="528" x2="4185" y2="2140" class="dep"/>
<path d="M 4174.569870868816 2136.505374654297 L 4185 2140 L 4182.811369760496 2129.2199305347913" class="dep"/>
<text x="3480.5" y="1328" class="rtype">&lt;&lt;dependency&gt;&gt;</text>
<line x1="2782" y1="528" x2="3518" y2="2140" class="dep"/>
<path d="M 3509.0402401376414 2133.6185657404576 L 3518 2140 L 3519.046604250165 2129.0499032176176" class="dep"/>
<text x="3158" y="1328" class="rtype">&lt;&lt;dependency&gt;&gt;</text>
<line x1="2760" y1="528" x2="1115" y2="3020" class="dep"/>
<path d="M 1115.6579844174769 3009.0196968845867 L 1115 3020 L 1124.83821364794 3015.0796796631225" class="dep"/>
<text x="1945.5" y="1768" class="rtype">&lt;&lt;dependency&gt;&gt;</text>
<line x1="3537" y1="372" x2="3518" y2="2140" class="dep"/>
<path d="M 3512.6026868326253 2130.415167681525 L 3518 2140 L 3523.602051695126 2130.533373525636" class="dep"/>
<text x="3535.5" y="1250" class="rtype">&lt;&lt;dependency&gt;&gt;</text>
<line x1="3515" y1="372" x2="2880" y2="2140" class="dep"/>
<path d="M 2878.0438311128114 2129.1753335716617 L 2880 2140 L 2888.3963516708395 2132.893574835433" class="dep"/>
<text x="3205.5" y="1250" class="rtype">&lt;&lt;dependency&gt;&gt;</text>
<line x1="3280" y1="246" x2="1050" y2="2396" class="dep"/>
<path d="M 1053.040569654032 2385.428579273391 L 1050 2396 L 1060.6754037303529 2393.3475001990632" class="dep"/>
<text x="2173" y="1315" class="rtype">&lt;&lt;dependency&gt;&gt;</text>
<line x1="3515" y1="372" x2="3645" y2="1100" class="dep"/>
<path d="M 3637.9110175892856 1091.588916337321 L 3645 1100 L 3648.739720919879 1089.655219314001" class="dep"/>
<text x="3588" y="730" class="rtype">&lt;&lt;dependency&gt;&gt;</text>
<line x1="4262" y1="398" x2="4163" y2="2140" class="dep"/>
<path d="M 4158.049378448877 2130.176999121574 L 4163 2140 L 4169.031657526552 2130.801135532992" class="dep"/>
<text x="4220.5" y="1263" class="rtype">&lt;&lt;dependency&gt;&gt;</text>
<line x1="4240" y1="398" x2="3540" y2="2140" class="dep"/>
<path d="M 3538.448582094887 2129.1099539723796 L 3540 2140 L 3548.655347555745 2133.211409668476" class="dep"/>
<text x="3898" y="1263" class="rtype">&lt;&lt;dependency&gt;&gt;</text>
<line x1="4010" y1="259" x2="1810" y2="2331" class="dep"/>
<path d="M 1813.163947166996 2320.4648474940104 L 1810 2331 L 1820.7056832864282 2328.4724823698557" class="dep"/>
<text x="2918" y="1289" class="rtype">&lt;&lt;dependency&gt;&gt;</text>
<line x1="4240" y1="398" x2="2880" y2="2140" class="dep"/>
<path d="M 2881.5270216877675 2129.1065063104124 L 2880 2140 L 2890.1975531150324 2135.875692728943" class="dep"/>
<text x="3568" y="1263" class="rtype">&lt;&lt;dependency&gt;&gt;</text>
<line x1="657" y1="1352" x2="813" y2="2140" class="dep"/>
<path d="M 805.754700978668 2131.723186477183 L 813 2140 L 816.5452812624801 2129.5869802281036" class="dep"/>
<text x="743" y="1740" class="rtype">&lt;&lt;dependency&gt;&gt;</text>
<line x1="635" y1="1352" x2="1560" y2="2140" class="dep"/>
<path d="M 1549.1816649479447 2138.0091140912973 L 1560 2140 L 1556.3149902469454 2129.635604063917" class="dep"/>
<text x="1105.5" y="1740" class="rtype">&lt;&lt;dependency&gt;&gt;</text>
<line x1="850" y1="1226" x2="3320" y2="2357" class="dep"/>
<path d="M 3309.048767918936 2358.034657386131 L 3320 2357 L 3313.628344378865 2348.033283508125" class="dep"/>
<text x="2093" y="1785.5" class="rtype">&lt;&lt;dependency&gt;&gt;</text>
<line x1="850" y1="1226" x2="3410" y2="1200" class="dep"/>
<path d="M 3400.5300683297287 1205.5964626471005 L 3410 1200 L 3400.4183553411444 1194.5970299249923" class="dep"/>
<text x="2138" y="1207" class="rtype">&lt;&lt;dependency&gt;&gt;</text>
<line x1="850" y1="1226" x2="4660" y2="1174" class="dep"/>
<path d="M 4650.549666319022 1179.629493167078 L 4660 1174 L 4650.399549066391 1168.6305175415725" class="dep"/>
<text x="2763" y="1194" class="rtype">&lt;&lt;dependency&gt;&gt;</text>
<line x1="1250" y1="1326" x2="2245" y2="2140" class="dep"/>
<path d="M 2234.1441614785044 2138.2249591567484 L 2245 2140 L 2241.109311202263 2129.7110476393773" class="dep"/>
<text x="1755.5" y="1727" class="rtype">&lt;&lt;dependency&gt;&gt;</text>
<line x1="1460" y1="1213" x2="3410" y2="1200" class="dep"/>
<path d="M 3400.5105980982926 1205.563384900209 L 3410 1200 L 3400.4372663945346 1194.5636293365055" class="dep"/>
<text x="2443" y="1200.5" class="rtype">&lt;&lt;dependency&gt;&gt;</text>
<line x1="1855" y1="1300" x2="2880" y2="2140" class="dep"/>
<path d="M 2869.1456761850127 2138.2157201678547 L 2880 2140 L 2876.118069754604 2129.707739919246" class="dep"/>
<text x="2375.5" y="1714" class="rtype">&lt;&lt;dependency&gt;&gt;</text>
<line x1="1877" y1="1300" x2="2223" y2="2140" class="dep"/>
<path d="M 2214.2863374290855 2133.286425348576 L 2223 2140 L 2224.457294912879 2129.0969595278702" class="dep"/>
<text x="2058" y="1714" class="rtype">&lt;&lt;dependency&gt;&gt;</text>
<line x1="2070" y1="1200" x2="3410" y2="1200" class="dep"/>
<path d="M 3400.473720558371 1205.5 L 3410 1200 L 3400.473720558371 1194.5" class="dep"/>
<text x="2748" y="1194" class="rtype">&lt;&lt;dependency&gt;&gt;</text>
<line x1="2497" y1="1326" x2="3518" y2="2140" class="dep"/>
<path d="M 3507.1226447233103 2138.361970029373 L 3518 2140 L 3513.9798979283787 2129.7609190190847" class="dep"/>
<text x="3015.5" y="1727" class="rtype">&lt;&lt;dependency&gt;&gt;</text>
<line x1="2690" y1="1213" x2="3990" y2="2292" class="dep"/>
<path d="M 3979.1570249224023 2290.1480033837524 L 3990 2292 L 3986.1823885785943 2281.683709822075" class="dep"/>
<text x="3348" y="1746.5" class="rtype">&lt;&lt;dependency&gt;&gt;</text>
<line x1="2497" y1="1326" x2="2858" y2="2140" class="dep"/>
<path d="M 2849.110216158279 2133.521439724177 L 2858 2140 L 2859.165705857951 2129.0619412210053" class="dep"/>
<text x="2685.5" y="1727" class="rtype">&lt;&lt;dependency&gt;&gt;</text>
<line x1="2690" y1="1213" x2="3410" y2="1200" class="dep"/>
<path d="M 3400.574562349615 1205.6710779485654 L 3410 1200 L 3400.3759836045083 1194.672870527263" class="dep"/>
<text x="3058" y="1200.5" class="rtype">&lt;&lt;dependency&gt;&gt;</text>
<line x1="3230" y1="1161" x2="4610" y2="2279" class="dep"/>
<path d="M 4599.135803513567 2277.276853255179 L 4610 2279 L 4606.060190612247 2268.729756478633" class="dep"/>
<text x="3928" y="1714" class="rtype">&lt;&lt;dependency&gt;&gt;</text>
<line x1="2870" y1="1161" x2="1050" y2="2396" class="dep"/>
<path d="M 1054.794507657179 2386.0998638228934 L 1050 2396 L 1060.971023258889 2395.202097341203" class="dep"/>
<text x="1968" y="1772.5" class="rtype">&lt;&lt;dependency&gt;&gt;</text>
<line x1="3230" y1="1161" x2="3410" y2="1200" class="dep"/>
<path d="M 3399.5251032548026 1203.3580557138698 L 3410 1200 L 3401.8543900718664 1192.6075011735752" class="dep"/>
<text x="3328" y="1174.5" class="rtype">&lt;&lt;dependency&gt;&gt;</text>
<line x1="3645" y1="1300" x2="3415" y2="3020" class="dep"/>
<path d="M 3410.8111480431303 3009.8287896844363 L 3415 3020 L 3421.7141005420776 3011.286742634877" class="dep"/>
<text x="3538" y="2154" class="rtype">&lt;&lt;dependency&gt;&gt;</text>
<line x1="3880" y1="1200" x2="4660" y2="1174" class="dep"/>
<path d="M 4650.662240095883 1179.814313370732 L 4660 1174 L 4650.295776963324 1168.8204193939612" class="dep"/>
<text x="4278" y="1181" class="rtype">&lt;&lt;dependency&gt;&gt;</text>
<line x1="4265" y1="1300" x2="3540" y2="2140" class="dep"/>
<path d="M 3542.060689142335 2129.1947438596458 L 3540 2140 L 3550.3879708831123 2136.381981076388" class="dep"/>
<text x="3910.5" y="1714" class="rtype">&lt;&lt;dependency&gt;&gt;</text>
<line x1="4050" y1="1200" x2="1050" y2="2396" class="dep"/>
<path d="M 1056.8122160727523 2387.3632348545225 L 1050 2396 L 1060.8857660588797 2397.5811696023334" class="dep"/>
<text x="2558" y="1792" class="rtype">&lt;&lt;dependency&gt;&gt;</text>
  <line x1="620" y1="2396" x2="380" y2="2367" class="dep"/>
<path d="M 390.1172708348558 2362.6824971506467 L 380 2367 L 388.7977025658798 2373.6030621352756" class="dep"/>
<text x="508" y="2375.5" class="rtype">&lt;&lt;dependency&gt;&gt;</text>
<line x1="2670" y1="2305" x2="380" y2="2667" class="dep"/>
<path d="M 388.55067065115475 2660.0800266318806 L 380 2667 L 390.2682080558805 2670.9451113192345" class="dep"/>
<text x="1533" y="2480" class="rtype">&lt;&lt;dependency&gt;&gt;</text>
<line x1="3320" y1="2357" x2="420" y2="3026" class="dep"/>
<path d="M 428.04616224919204 3018.499381821498 L 420 3026 L 430.51880701126623 3029.2178718215205" class="dep"/>
<text x="1878" y="2685.5" class="rtype">&lt;&lt;dependency&gt;&gt;</text>
<line x1="3320" y1="2357" x2="420" y2="3347" class="dep"/>
<path d="M 427.2385258939203 3338.7172623557763 L 420 3347 L 430.7923241597398 3349.1273784879745" class="dep"/>
<text x="1878" y="2846" class="rtype">&lt;&lt;dependency&gt;&gt;</text>
<line x1="4610" y1="2279" x2="420" y2="3347" class="dep"/>
<path d="M 427.872650385697 3339.3174629252712 L 420 3347 L 430.5895974650796 3349.9766466917627" class="dep"/>
<text x="2523" y="2807" class="rtype">&lt;&lt;dependency&gt;&gt;</text>
  
    <g>
      <rect x="80" y="80" width="300" height="240" class="legend"/>
      <text x="100" y="115" class="legendTitle">Legend</text>
      <line x1="98" y1="150" x2="188" y2="150" class="assoc"/><text x="205" y="156" class="legendText">Association</text>
      <line x1="98" y1="188" x2="188" y2="188" class="dep"/><text x="205" y="194" class="legendText">Dependency</text>
      <line x1="98" y1="226" x2="188" y2="226" class="assoc"/><polygon points="98,226 86,214 74,226 86,238" class="filledDiamond"/><text x="205" y="232" class="legendText">Composition</text>
      <text x="100" y="278" class="legendText">Stereotypes: &lt;&lt;controller&gt;&gt;, &lt;&lt;service&gt;&gt;, &lt;&lt;entity&gt;&gt;</text>
    </g>

  <g>
    <rect x="520" y="120" width="420" height="226" class="box "/>
    <line x1="520" y1="178" x2="940" y2="178" class="sep"/>
    <line x1="520" y1="310" x2="940" y2="310" class="sep"/>
    <text x="730" y="144" class="stereo">&lt;&lt;controller&gt;&gt;</text>
    <text x="730" y="170" class="title">AuthController</text>
    <text x="536" y="222" class="attr">+ register(req,res)</text>
<text x="536" y="248" class="attr">+ login(req,res)</text>
<text x="536" y="274" class="attr">+ getMe(req,res)</text>
<text x="536" y="300" class="attr">+ updateProfile(req,res)</text>
<text x="536" y="326" class="attr">+ changePassword(req,res)</text>
  </g>

  <g>
    <rect x="1160" y="120" width="440" height="278" class="box "/>
    <line x1="1160" y1="178" x2="1600" y2="178" class="sep"/>
    <line x1="1160" y1="362" x2="1600" y2="362" class="sep"/>
    <text x="1380" y="144" class="stereo">&lt;&lt;controller&gt;&gt;</text>
    <text x="1380" y="170" class="title">CategoryController</text>
    <text x="1176" y="222" class="attr">+ getAll(req,res)</text>
<text x="1176" y="248" class="attr">+ getById(req,res)</text>
<text x="1176" y="274" class="attr">+ getBySlug(req,res)</text>
<text x="1176" y="300" class="attr">+ create(req,res)</text>
<text x="1176" y="326" class="attr">+ update(req,res)</text>
<text x="1176" y="352" class="attr">+ delete(req,res)</text>
<text x="1176" y="378" class="attr">+ getServices(req,res)</text>
  </g>

  <g>
    <rect x="1840" y="120" width="430" height="252" class="box "/>
    <line x1="1840" y1="178" x2="2270" y2="178" class="sep"/>
    <line x1="1840" y1="336" x2="2270" y2="336" class="sep"/>
    <text x="2055" y="144" class="stereo">&lt;&lt;controller&gt;&gt;</text>
    <text x="2055" y="170" class="title">ServiceController</text>
    <text x="1856" y="222" class="attr">+ getAll(req,res)</text>
<text x="1856" y="248" class="attr">+ getById(req,res)</text>
<text x="1856" y="274" class="attr">+ create(req,res)</text>
<text x="1856" y="300" class="attr">+ update(req,res)</text>
<text x="1856" y="326" class="attr">+ delete(req,res)</text>
<text x="1856" y="352" class="attr">+ getByProvider(req,res)</text>
  </g>

  <g>
    <rect x="2500" y="120" width="520" height="408" class="box "/>
    <line x1="2500" y1="178" x2="3020" y2="178" class="sep"/>
    <line x1="2500" y1="492" x2="3020" y2="492" class="sep"/>
    <text x="2760" y="144" class="stereo">&lt;&lt;controller&gt;&gt;</text>
    <text x="2760" y="170" class="title">ProviderController</text>
    <text x="2516" y="222" class="attr">+ getAll(req,res)</text>
<text x="2516" y="248" class="attr">+ getById(req,res)</text>
<text x="2516" y="274" class="attr">+ getServices(req,res)</text>
<text x="2516" y="300" class="attr">+ getReviews(req,res)</text>
<text x="2516" y="326" class="attr">+ getCategories(req,res)</text>
<text x="2516" y="352" class="attr">+ getMyProfile(req,res)</text>
<text x="2516" y="378" class="attr">+ updateProfile(req,res)</text>
<text x="2516" y="404" class="attr">+ updateAvailability(req,res)</text>
<text x="2516" y="430" class="attr">+ toggleAvailability(req,res)</text>
<text x="2516" y="456" class="attr">+ getDashboard(req,res)</text>
<text x="2516" y="482" class="attr">+ getStats(req,res)</text>
<text x="2516" y="508" class="attr">+ requestVerification(req,res)</text>
  </g>

  <g>
    <rect x="3280" y="120" width="470" height="252" class="box "/>
    <line x1="3280" y1="178" x2="3750" y2="178" class="sep"/>
    <line x1="3280" y1="336" x2="3750" y2="336" class="sep"/>
    <text x="3515" y="144" class="stereo">&lt;&lt;controller&gt;&gt;</text>
    <text x="3515" y="170" class="title">BookingController</text>
    <text x="3296" y="222" class="attr">+ getMyBookings(req,res)</text>
<text x="3296" y="248" class="attr">+ getAll(req,res)</text>
<text x="3296" y="274" class="attr">+ getById(req,res)</text>
<text x="3296" y="300" class="attr">+ create(req,res)</text>
<text x="3296" y="326" class="attr">+ updateStatus(req,res)</text>
<text x="3296" y="352" class="attr">+ cancel(req,res)</text>
  </g>

  <g>
    <rect x="4010" y="120" width="460" height="278" class="box "/>
    <line x1="4010" y1="178" x2="4470" y2="178" class="sep"/>
    <line x1="4010" y1="362" x2="4470" y2="362" class="sep"/>
    <text x="4240" y="144" class="stereo">&lt;&lt;controller&gt;&gt;</text>
    <text x="4240" y="170" class="title">ReviewController</text>
    <text x="4026" y="222" class="attr">+ getAll(req,res)</text>
<text x="4026" y="248" class="attr">+ getByService(req,res)</text>
<text x="4026" y="274" class="attr">+ getByProvider(req,res)</text>
<text x="4026" y="300" class="attr">+ getByBooking(req,res)</text>
<text x="4026" y="326" class="attr">+ create(req,res)</text>
<text x="4026" y="352" class="attr">+ update(req,res)</text>
<text x="4026" y="378" class="attr">+ delete(req,res)</text>
  </g>

  <g>
    <rect x="420" y="1100" width="430" height="252" class="box "/>
    <line x1="420" y1="1158" x2="850" y2="1158" class="sep"/>
    <line x1="420" y1="1316" x2="850" y2="1316" class="sep"/>
    <text x="635" y="1124" class="stereo">&lt;&lt;service-module&gt;&gt;</text>
    <text x="635" y="1150" class="title">UserService</text>
    <text x="436" y="1202" class="attr">+ listUsers(filters)</text>
<text x="436" y="1228" class="attr">+ createUser(data, adminId?)</text>
<text x="436" y="1254" class="attr">+ updateUser(id,data,adminId?)</text>
<text x="436" y="1280" class="attr">+ verifyProvider(providerId, adminId)</text>
<text x="436" y="1306" class="attr">+ deleteUser(userId, adminId?)</text>
<text x="436" y="1332" class="attr">+ getUserById(userId)</text>
  </g>

  <g>
    <rect x="1040" y="1100" width="420" height="226" class="box "/>
    <line x1="1040" y1="1158" x2="1460" y2="1158" class="sep"/>
    <line x1="1040" y1="1290" x2="1460" y2="1290" class="sep"/>
    <text x="1250" y="1124" class="stereo">&lt;&lt;service-module&gt;&gt;</text>
    <text x="1250" y="1150" class="title">CategoryService</text>
    <text x="1056" y="1202" class="attr">+ listCategories()</text>
<text x="1056" y="1228" class="attr">+ getCategoryById(id)</text>
<text x="1056" y="1254" class="attr">+ createCategory(data, adminId?)</text>
<text x="1056" y="1280" class="attr">+ updateCategory(id,data,adminId?)</text>
<text x="1056" y="1306" class="attr">+ deleteCategory(id, adminId?)</text>
  </g>

  <g>
    <rect x="1640" y="1100" width="430" height="200" class="box "/>
    <line x1="1640" y1="1158" x2="2070" y2="1158" class="sep"/>
    <line x1="1640" y1="1264" x2="2070" y2="1264" class="sep"/>
    <text x="1855" y="1124" class="stereo">&lt;&lt;service-module&gt;&gt;</text>
    <text x="1855" y="1150" class="title">ServiceService</text>
    <text x="1656" y="1202" class="attr">+ listServices(filters)</text>
<text x="1656" y="1228" class="attr">+ getServiceById(id)</text>
<text x="1656" y="1254" class="attr">+ updateService(id,data,adminId?)</text>
<text x="1656" y="1280" class="attr">+ deleteService(id,adminId?)</text>
  </g>

  <g>
    <rect x="2260" y="1100" width="430" height="226" class="box "/>
    <line x1="2260" y1="1158" x2="2690" y2="1158" class="sep"/>
    <line x1="2260" y1="1290" x2="2690" y2="1290" class="sep"/>
    <text x="2475" y="1124" class="stereo">&lt;&lt;service-module&gt;&gt;</text>
    <text x="2475" y="1150" class="title">BookingService</text>
    <text x="2276" y="1202" class="attr">+ listBookings(filters)</text>
<text x="2276" y="1228" class="attr">+ getBookingById(id)</text>
<text x="2276" y="1254" class="attr">+ updateBooking(id,data,adminId?)</text>
<text x="2276" y="1280" class="attr">+ deleteBooking(id)</text>
<text x="2276" y="1306" class="attr">+ getBookingStats()</text>
  </g>

  <g>
    <rect x="2870" y="1100" width="360" height="122" class="box "/>
    <line x1="2870" y1="1158" x2="3230" y2="1158" class="sep"/>
    <line x1="2870" y1="1186" x2="3230" y2="1186" class="sep"/>
    <text x="3050" y="1124" class="stereo">&lt;&lt;service-module&gt;&gt;</text>
    <text x="3050" y="1150" class="title">PaymentService</text>
    <text x="2886" y="1202" class="attr">+ processSubscriptionPayment(userId, amount, method, plan)</text>
  </g>

  <g>
    <rect x="3410" y="1100" width="470" height="200" class="box "/>
    <line x1="3410" y1="1158" x2="3880" y2="1158" class="sep"/>
    <line x1="3410" y1="1264" x2="3880" y2="1264" class="sep"/>
    <text x="3645" y="1124" class="stereo">&lt;&lt;service-module&gt;&gt;</text>
    <text x="3645" y="1150" class="title">NotificationService</text>
    <text x="3426" y="1202" class="attr">+ createNotification(userId,title,message,...)</text>
<text x="3426" y="1228" class="attr">+ createFormattedNotification(recipient,...)</text>
<text x="3426" y="1254" class="attr">+ createStandardNotification(recipient,...)</text>
<text x="3426" y="1280" class="attr">- getNotificationTitle(action)</text>
  </g>

  <g>
    <rect x="4050" y="1100" width="430" height="200" class="box "/>
    <line x1="4050" y1="1158" x2="4480" y2="1158" class="sep"/>
    <line x1="4050" y1="1264" x2="4480" y2="1264" class="sep"/>
    <text x="4265" y="1124" class="stereo">&lt;&lt;service-class&gt;&gt;</text>
    <text x="4265" y="1150" class="title">EmailService</text>
    <text x="4066" y="1202" class="attr">+ sendWelcomeEmail(email, firstName)</text>
<text x="4066" y="1228" class="attr">+ sendBookingConfirmation(email, firstName, details)</text>
<text x="4066" y="1254" class="attr">+ sendBookingStatusUpdate(email, firstName, status, details)</text>
<text x="4066" y="1280" class="attr">+ sendPasswordReset(email, resetToken)</text>
  </g>

  <g>
    <rect x="4660" y="1100" width="520" height="148" class="box "/>
    <line x1="4660" y1="1158" x2="5180" y2="1158" class="sep"/>
    <line x1="4660" y1="1212" x2="5180" y2="1212" class="sep"/>
    <text x="4920" y="1124" class="stereo">&lt;&lt;utility&gt;&gt;</text>
    <text x="4920" y="1150" class="title">NotificationFormatter</text>
    <text x="4676" y="1202" class="attr">+ formatNotificationMessage(baseMessage, recipient, context?)</text>
<text x="4676" y="1228" class="attr">+ createStandardNotificationMessage(action, entity, recipient, context?)</text>
  </g>

  <g>
    <rect x="120" y="2280" width="260" height="174" class="box domain"/>
    <line x1="120" y1="2338" x2="380" y2="2338" class="sep"/>
    <line x1="120" y1="2418" x2="380" y2="2418" class="sep"/>
    <text x="250" y="2304" class="stereo">&lt;&lt;enumeration&gt;&gt;</text>
    <text x="250" y="2330" class="title">Role</text>
    <text x="136" y="2382" class="attr">CLIENT</text>
<text x="136" y="2408" class="attr">PRESTATAIRE</text>
<text x="136" y="2434" class="attr">ADMIN</text>
  </g>

  <g>
    <rect x="120" y="2580" width="260" height="174" class="box domain"/>
    <line x1="120" y1="2638" x2="380" y2="2638" class="sep"/>
    <line x1="120" y1="2718" x2="380" y2="2718" class="sep"/>
    <text x="250" y="2604" class="stereo">&lt;&lt;enumeration&gt;&gt;</text>
    <text x="250" y="2630" class="title">PriceType</text>
    <text x="136" y="2682" class="attr">FIXED</text>
<text x="136" y="2708" class="attr">HOURLY</text>
<text x="136" y="2734" class="attr">QUOTE</text>
  </g>

  <g>
    <rect x="120" y="2900" width="300" height="252" class="box domain"/>
    <line x1="120" y1="2958" x2="420" y2="2958" class="sep"/>
    <line x1="120" y1="3116" x2="420" y2="3116" class="sep"/>
    <text x="270" y="2924" class="stereo">&lt;&lt;enumeration&gt;&gt;</text>
    <text x="270" y="2950" class="title">BookingStatus</text>
    <text x="136" y="3002" class="attr">PENDING</text>
<text x="136" y="3028" class="attr">CONFIRMED</text>
<text x="136" y="3054" class="attr">IN_PROGRESS</text>
<text x="136" y="3080" class="attr">COMPLETED</text>
<text x="136" y="3106" class="attr">CANCELLED</text>
<text x="136" y="3132" class="attr">REJECTED</text>
  </g>

  <g>
    <rect x="120" y="3260" width="300" height="174" class="box domain"/>
    <line x1="120" y1="3318" x2="420" y2="3318" class="sep"/>
    <line x1="120" y1="3398" x2="420" y2="3398" class="sep"/>
    <text x="270" y="3284" class="stereo">&lt;&lt;enumeration&gt;&gt;</text>
    <text x="270" y="3310" class="title">PaymentStatus</text>
    <text x="136" y="3362" class="attr">PENDING</text>
<text x="136" y="3388" class="attr">PAID</text>
<text x="136" y="3414" class="attr">REFUNDED</text>
  </g>

  <g>
    <rect x="620" y="2140" width="430" height="512" class="box domain"/>
    <line x1="620" y1="2198" x2="1050" y2="2198" class="sep"/>
    <line x1="620" y1="2616" x2="1050" y2="2616" class="sep"/>
    <text x="835" y="2164" class="stereo">&lt;&lt;entity&gt;&gt;</text>
    <text x="835" y="2190" class="title">User</text>
    <text x="636" y="2242" class="attr">+ id: String</text>
<text x="636" y="2268" class="attr">+ email: String</text>
<text x="636" y="2294" class="attr">+ password: String</text>
<text x="636" y="2320" class="attr">+ firstName: String</text>
<text x="636" y="2346" class="attr">+ lastName: String</text>
<text x="636" y="2372" class="attr">+ phone: String</text>
<text x="636" y="2398" class="attr">+ role: Role</text>
<text x="636" y="2424" class="attr">+ avatar: String?</text>
<text x="636" y="2450" class="attr">+ bio: String?</text>
<text x="636" y="2476" class="attr">+ specialization: String?</text>
<text x="636" y="2502" class="attr">+ address: String?</text>
<text x="636" y="2528" class="attr">+ zone: String?</text>
<text x="636" y="2554" class="attr">+ latitude: Float?</text>
<text x="636" y="2580" class="attr">+ longitude: Float?</text>
<text x="636" y="2606" class="attr">+ isVerified: Boolean</text>
<text x="636" y="2632" class="attr">+ isActive: Boolean</text>
  </g>

  <g>
    <rect x="1310" y="2140" width="500" height="382" class="box domain"/>
    <line x1="1310" y1="2198" x2="1810" y2="2198" class="sep"/>
    <line x1="1310" y1="2486" x2="1810" y2="2486" class="sep"/>
    <text x="1560" y="2164" class="stereo">&lt;&lt;entity&gt;&gt;</text>
    <text x="1560" y="2190" class="title">ProviderProfile</text>
    <text x="1326" y="2242" class="attr">+ id: String</text>
<text x="1326" y="2268" class="attr">+ userId: String</text>
<text x="1326" y="2294" class="attr">+ businessName: String?</text>
<text x="1326" y="2320" class="attr">+ specialty: String?</text>
<text x="1326" y="2346" class="attr">+ hourlyRate: Decimal?</text>
<text x="1326" y="2372" class="attr">+ location: String?</text>
<text x="1326" y="2398" class="attr">+ serviceRadius: Int?</text>
<text x="1326" y="2424" class="attr">+ isAvailable: Boolean</text>
<text x="1326" y="2450" class="attr">+ rating: Decimal</text>
<text x="1326" y="2476" class="attr">+ totalReviews: Int</text>
<text x="1326" y="2502" class="attr">+ totalBookings: Int</text>
  </g>

  <g>
    <rect x="2050" y="2140" width="390" height="304" class="box domain"/>
    <line x1="2050" y1="2198" x2="2440" y2="2198" class="sep"/>
    <line x1="2050" y1="2408" x2="2440" y2="2408" class="sep"/>
    <text x="2245" y="2164" class="stereo">&lt;&lt;entity&gt;&gt;</text>
    <text x="2245" y="2190" class="title">Category</text>
    <text x="2066" y="2242" class="attr">+ id: String</text>
<text x="2066" y="2268" class="attr">+ name: String</text>
<text x="2066" y="2294" class="attr">+ slug: String</text>
<text x="2066" y="2320" class="attr">+ description: String?</text>
<text x="2066" y="2346" class="attr">+ icon: String?</text>
<text x="2066" y="2372" class="attr">+ image: String?</text>
<text x="2066" y="2398" class="attr">+ parentId: String?</text>
<text x="2066" y="2424" class="attr">+ displayOrder: Int</text>
  </g>

  <g>
    <rect x="2670" y="2140" width="420" height="330" class="box domain"/>
    <line x1="2670" y1="2198" x2="3090" y2="2198" class="sep"/>
    <line x1="2670" y1="2434" x2="3090" y2="2434" class="sep"/>
    <text x="2880" y="2164" class="stereo">&lt;&lt;entity&gt;&gt;</text>
    <text x="2880" y="2190" class="title">Service</text>
    <text x="2686" y="2242" class="attr">+ id: String</text>
<text x="2686" y="2268" class="attr">+ providerId: String</text>
<text x="2686" y="2294" class="attr">+ categoryId: String?</text>
<text x="2686" y="2320" class="attr">+ name: String</text>
<text x="2686" y="2346" class="attr">+ description: String?</text>
<text x="2686" y="2372" class="attr">+ price: Decimal</text>
<text x="2686" y="2398" class="attr">+ priceType: PriceType</text>
<text x="2686" y="2424" class="attr">+ duration: Int?</text>
<text x="2686" y="2450" class="attr">+ isActive: Boolean</text>
  </g>

  <g>
    <rect x="3320" y="2140" width="440" height="434" class="box domain"/>
    <line x1="3320" y1="2198" x2="3760" y2="2198" class="sep"/>
    <line x1="3320" y1="2538" x2="3760" y2="2538" class="sep"/>
    <text x="3540" y="2164" class="stereo">&lt;&lt;entity&gt;&gt;</text>
    <text x="3540" y="2190" class="title">Booking</text>
    <text x="3336" y="2242" class="attr">+ id: String</text>
<text x="3336" y="2268" class="attr">+ clientId: String</text>
<text x="3336" y="2294" class="attr">+ serviceId: String</text>
<text x="3336" y="2320" class="attr">+ bookingDate: DateTime</text>
<text x="3336" y="2346" class="attr">+ bookingTime: String</text>
<text x="3336" y="2372" class="attr">+ duration: Int</text>
<text x="3336" y="2398" class="attr">+ status: BookingStatus</text>
<text x="3336" y="2424" class="attr">+ address: String</text>
<text x="3336" y="2450" class="attr">+ city: String</text>
<text x="3336" y="2476" class="attr">+ phone: String?</text>
<text x="3336" y="2502" class="attr">+ notes: String?</text>
<text x="3336" y="2528" class="attr">+ totalAmount: Decimal?</text>
<text x="3336" y="2554" class="attr">+ paymentStatus: PaymentStatus</text>
  </g>

  <g>
    <rect x="3990" y="2140" width="390" height="304" class="box domain"/>
    <line x1="3990" y1="2198" x2="4380" y2="2198" class="sep"/>
    <line x1="3990" y1="2408" x2="4380" y2="2408" class="sep"/>
    <text x="4185" y="2164" class="stereo">&lt;&lt;entity&gt;&gt;</text>
    <text x="4185" y="2190" class="title">Review</text>
    <text x="4006" y="2242" class="attr">+ id: String</text>
<text x="4006" y="2268" class="attr">+ bookingId: String</text>
<text x="4006" y="2294" class="attr">+ clientId: String</text>
<text x="4006" y="2320" class="attr">+ providerId: String</text>
<text x="4006" y="2346" class="attr">+ serviceId: String?</text>
<text x="4006" y="2372" class="attr">+ rating: Int</text>
<text x="4006" y="2398" class="attr">+ comment: String?</text>
<text x="4006" y="2424" class="attr">+ isVerified: Boolean</text>
  </g>

  <g>
    <rect x="4610" y="2140" width="360" height="278" class="box domain"/>
    <line x1="4610" y1="2198" x2="4970" y2="2198" class="sep"/>
    <line x1="4610" y1="2382" x2="4970" y2="2382" class="sep"/>
    <text x="4790" y="2164" class="stereo">&lt;&lt;entity&gt;&gt;</text>
    <text x="4790" y="2190" class="title">Payment</text>
    <text x="4626" y="2242" class="attr">+ id: String</text>
<text x="4626" y="2268" class="attr">+ bookingId: String?</text>
<text x="4626" y="2294" class="attr">+ userId: String</text>
<text x="4626" y="2320" class="attr">+ amount: Decimal</text>
<text x="4626" y="2346" class="attr">+ paymentMethod: String?</text>
<text x="4626" y="2372" class="attr">+ status: PaymentStatus</text>
<text x="4626" y="2398" class="attr">+ transactionId: String?</text>
  </g>

  <g>
    <rect x="900" y="3020" width="430" height="252" class="box domain"/>
    <line x1="900" y1="3078" x2="1330" y2="3078" class="sep"/>
    <line x1="900" y1="3236" x2="1330" y2="3236" class="sep"/>
    <text x="1115" y="3044" class="stereo">&lt;&lt;entity&gt;&gt;</text>
    <text x="1115" y="3070" class="title">VerificationRequest</text>
    <text x="916" y="3122" class="attr">+ id: String</text>
<text x="916" y="3148" class="attr">+ userId: String</text>
<text x="916" y="3174" class="attr">+ documents: Json?</text>
<text x="916" y="3200" class="attr">+ status: String</text>
<text x="916" y="3226" class="attr">+ reviewedBy: String?</text>
<text x="916" y="3252" class="attr">+ reviewedAt: DateTime?</text>
  </g>

  <g>
    <rect x="1720" y="3020" width="380" height="278" class="box domain"/>
    <line x1="1720" y1="3078" x2="2100" y2="3078" class="sep"/>
    <line x1="1720" y1="3262" x2="2100" y2="3262" class="sep"/>
    <text x="1910" y="3044" class="stereo">&lt;&lt;entity&gt;&gt;</text>
    <text x="1910" y="3070" class="title">Subscription</text>
    <text x="1736" y="3122" class="attr">+ id: String</text>
<text x="1736" y="3148" class="attr">+ userId: String</text>
<text x="1736" y="3174" class="attr">+ plan: String</text>
<text x="1736" y="3200" class="attr">+ status: String</text>
<text x="1736" y="3226" class="attr">+ startDate: DateTime</text>
<text x="1736" y="3252" class="attr">+ endDate: DateTime</text>
<text x="1736" y="3278" class="attr">+ subscriptionPlanId: String?</text>
  </g>

  <g>
    <rect x="2440" y="3020" width="430" height="304" class="box domain"/>
    <line x1="2440" y1="3078" x2="2870" y2="3078" class="sep"/>
    <line x1="2440" y1="3288" x2="2870" y2="3288" class="sep"/>
    <text x="2655" y="3044" class="stereo">&lt;&lt;entity&gt;&gt;</text>
    <text x="2655" y="3070" class="title">SubscriptionPlan</text>
    <text x="2456" y="3122" class="attr">+ id: String</text>
<text x="2456" y="3148" class="attr">+ name: String</text>
<text x="2456" y="3174" class="attr">+ slug: String</text>
<text x="2456" y="3200" class="attr">+ price: Decimal</text>
<text x="2456" y="3226" class="attr">+ duration: Int</text>
<text x="2456" y="3252" class="attr">+ features: Json</text>
<text x="2456" y="3278" class="attr">+ isActive: Boolean</text>
<text x="2456" y="3304" class="attr">+ displayOrder: Int</text>
  </g>

  <g>
    <rect x="3210" y="3020" width="410" height="278" class="box domain"/>
    <line x1="3210" y1="3078" x2="3620" y2="3078" class="sep"/>
    <line x1="3210" y1="3262" x2="3620" y2="3262" class="sep"/>
    <text x="3415" y="3044" class="stereo">&lt;&lt;entity&gt;&gt;</text>
    <text x="3415" y="3070" class="title">Notification</text>
    <text x="3226" y="3122" class="attr">+ id: String</text>
<text x="3226" y="3148" class="attr">+ userId: String</text>
<text x="3226" y="3174" class="attr">+ title: String</text>
<text x="3226" y="3200" class="attr">+ message: String</text>
<text x="3226" y="3226" class="attr">+ type: String</text>
<text x="3226" y="3252" class="attr">+ read: Boolean</text>
<text x="3226" y="3278" class="attr">+ link: String?</text>
  </g>
</svg>