<?xml version="1.0" encoding="UTF-8"?>
<svg xmlns="http://www.w3.org/2000/svg" width="3600" height="2400" viewBox="0 0 3600 2400">
  <defs>
    <pattern id="grid" width="26" height="26" patternUnits="userSpaceOnUse">
      <path d="M 26 0 L 0 0 0 26" fill="none" stroke="#ebebeb" stroke-width="1"/>
    </pattern>
    <filter id="shadow" x="-10%" y="-10%" width="120%" height="120%">
      <feDropShadow dx="8" dy="8" stdDeviation="4" flood-color="#c9c9c9" flood-opacity="0.4"/>
    </filter>
  </defs>
  <style>
    text { font-family: Arial, Helvetica, sans-serif; fill: #111; }
    .titleMain { font-size: 46px; font-weight: 700; }
    .subtitle { font-size: 20px; fill: #555; }
    .box { fill: #fff; stroke: #111; stroke-width: 2.4; filter: url(#shadow); }
    .enum { fill: #fcfcfc; }
    .separator { stroke: #111; stroke-width: 2; }
    .title { font-size: 26px; font-weight: 700; text-anchor: middle; }
    .attr { font-size: 21px; }
    .assoc { stroke: #111; stroke-width: 2.2; fill: none; }
    .dep { stroke: #444; stroke-width: 2; stroke-dasharray: 10 7; fill: none; }
    .mult { font-size: 20px; font-weight: 600; }
    .note { font-size: 18px; fill: #444; font-style: italic; }
    .diamond { fill: white; stroke: #111; stroke-width: 2.2; }
    .diamond-filled { fill: #111; stroke: #111; stroke-width: 2.2; }
  </style>
  <rect width="100%" height="100%" fill="#fafafa"/>
  <rect width="100%" height="100%" fill="url(#grid)"/>
  <rect x="40" y="40" width="3520" height="2320" fill="none" stroke="#bdbdbd" stroke-width="2"/>
  <text x="1800" y="90" text-anchor="middle" class="titleMain">Diagramme de Classes - KaayJob</text>
  <text x="1800" y="125" text-anchor="middle" class="subtitle">Modèle métier reconstitué depuis Prisma, SQL et les routes backend du projet</text>
  
  <line x1="640" y1="427" x2="830" y2="502" class="assoc" />
  
  <text x="648" y="417" class="mult">1</text>
  <text x="780" y="492" class="mult">0..1</text>
  

  <line x1="380" y1="734" x2="905" y2="910" class="assoc" />
  
  <text x="388" y="758" class="mult">1</text>
  <text x="913" y="900" class="mult">0..*</text>
  <text x="652.5" y="812" class="note">clientBookings</text>

  <line x1="640" y1="427" x2="1430" y2="1107" class="assoc" />
  
  <text x="648" y="417" class="mult">1</text>
  <text x="1380" y="1097" class="mult">0..*</text>
  <text x="1045" y="757" class="note">client</text>

  <line x1="640" y1="427" x2="2140" y2="1087" class="assoc" />
  
  <text x="648" y="417" class="mult">1</text>
  <text x="2090" y="1077" class="mult">0..*</text>
  

  <line x1="380" y1="734" x2="360" y2="1640" class="assoc" />
  
  <text x="388" y="758" class="mult">1</text>
  <text x="368" y="1630" class="mult">0..*</text>
  <text x="380" y="1177" class="note">requester</text>

  <line x1="414" y1="734" x2="394" y2="1640" class="assoc" />
  
  <text x="422" y="758" class="mult">0..1</text>
  <text x="402" y="1630" class="mult">0..*</text>
  <text x="414" y="1177" class="note">reviewer(admin)</text>

  <line x1="380" y1="734" x2="1090" y2="1640" class="assoc" />
  
  <text x="388" y="758" class="mult">1</text>
  <text x="1098" y="1630" class="mult">0..*</text>
  

  <line x1="640" y1="427" x2="2310" y2="1812" class="assoc" />
  
  <text x="648" y="417" class="mult">1</text>
  <text x="2260" y="1802" class="mult">0..*</text>
  

  <line x1="1390" y1="502" x2="2300" y2="322" class="assoc" />
  
  <text x="1398" y="492" class="mult">1</text>
  <text x="2250" y="312" class="mult">0..*</text>
  <text x="1855" y="402" class="note">providerId -&gt; userId</text>

  <line x1="1110" y1="884" x2="1665" y2="920" class="assoc" />
  
  <text x="1118" y="908" class="mult">1</text>
  <text x="1673" y="910" class="mult">0..*</text>
  

    <path d="M 2080 240 C 2200 240, 2200 410, 2080 410" class="assoc" />
    <text x="2108" y="228" class="mult">parent 0..1</text>
    <text x="2108" y="435" class="mult">children 0..*</text>

  <line x1="2080" y1="307" x2="2300" y2="322" class="assoc" />
  
  <text x="2088" y="297" class="mult">1</text>
  <text x="2250" y="312" class="mult">0..*</text>
  

  <line x1="2300" y1="322" x2="1160" y2="1172" class="assoc" />
  
  <text x="2250" y="312" class="mult">1</text>
  <text x="1168" y="1162" class="mult">0..*</text>
  

  <line x1="2300" y1="322" x2="1900" y2="1107" class="assoc" />
  
  <text x="2250" y="312" class="mult">0..1</text>
  <text x="1908" y="1097" class="mult">0..*</text>
  

  <line x1="1160" y1="1172" x2="1430" y2="1107" class="assoc" />
  <polygon points="1160,1172 1147,1163.3333333333333 1134,1172 1147,1180.6666666666667" class="diamond-filled" />
  <text x="1168" y="1162" class="mult">1</text>
  <text x="1380" y="1097" class="mult">0..1</text>
  

  <line x1="1160" y1="1172" x2="2140" y2="1087" class="assoc" />
  
  <text x="1168" y="1162" class="mult">1</text>
  <text x="2090" y="1077" class="mult">0..*</text>
  

  <line x1="1570" y1="1842" x2="1320" y2="1797" class="assoc" />
  
  <text x="1520" y="1832" class="mult">1</text>
  <text x="1328" y="1787" class="mult">0..*</text>
  

<line x1="640" y1="427" x2="2990" y2="208" class="dep" />
<path d="M 2976.9456889962466 217.251214202324 L 2990 208 L 2975.461057983059 201.32024214300878" class="dep" />

<line x1="2780" y1="322" x2="2990" y2="518" class="dep" />
<path d="M 2974.4116550552194 514.3939631335027 L 2990 518 L 2985.32874706098 502.6970788416167" class="dep" />

<line x1="1160" y1="1172" x2="2990" y2="959" class="dep" />
<path d="M 2977.1614134693873 968.5483347184718 L 2990 959 L 2975.31160630466 952.6556252750407" class="dep" />

<line x1="1160" y1="1172" x2="2990" y2="1378" class="dep" />
<path d="M 2975.335665075595 1384.3997875921682 L 2990 1378 L 2977.125453904155 1368.5002072219459" class="dep" />

<line x1="2590" y1="1112" x2="2990" y2="1403" class="dep" />
<path d="M 2974.0887004022056 1401.3175776067756 L 2990 1403 L 2983.501370733531 1388.3791991444725" class="dep" />
  
  <g>
    <rect x="120" y="120" width="520" height="614" class="box class" />
    <line x1="120" y1="180" x2="640" y2="180" class="separator" />
    <text x="380" y="156" class="title"><tspan x="380" dy="0">User</tspan></text>
    <text x="140" y="204" class="attr">+ id: String</text>
<text x="140" y="234" class="attr">+ email: String</text>
<text x="140" y="264" class="attr">+ password: String</text>
<text x="140" y="294" class="attr">+ firstName: String</text>
<text x="140" y="324" class="attr">+ lastName: String</text>
<text x="140" y="354" class="attr">+ phone: String</text>
<text x="140" y="384" class="attr">+ role: Role</text>
<text x="140" y="414" class="attr">+ avatar: String?</text>
<text x="140" y="444" class="attr">+ bio: String?</text>
<text x="140" y="474" class="attr">+ specialization: String?</text>
<text x="140" y="504" class="attr">+ address: String?</text>
<text x="140" y="534" class="attr">+ zone: String?</text>
<text x="140" y="564" class="attr">+ latitude: Float?</text>
<text x="140" y="594" class="attr">+ longitude: Float?</text>
<text x="140" y="624" class="attr">+ isVerified: Boolean</text>
<text x="140" y="654" class="attr">+ isActive: Boolean</text>
<text x="140" y="684" class="attr">+ createdAt: DateTime</text>
<text x="140" y="714" class="attr">+ updatedAt: DateTime</text>
  </g>

  <g>
    <rect x="830" y="120" width="560" height="764" class="box class" />
    <line x1="830" y1="180" x2="1390" y2="180" class="separator" />
    <text x="1110" y="156" class="title"><tspan x="1110" dy="0">ProviderProfile</tspan></text>
    <text x="850" y="204" class="attr">+ id: String</text>
<text x="850" y="234" class="attr">+ userId: String</text>
<text x="850" y="264" class="attr">+ businessName: String?</text>
<text x="850" y="294" class="attr">+ specialty: String?</text>
<text x="850" y="324" class="attr">+ bio: String?</text>
<text x="850" y="354" class="attr">+ hourlyRate: Decimal?</text>
<text x="850" y="384" class="attr">+ yearsExperience: Int?</text>
<text x="850" y="414" class="attr">+ location: String?</text>
<text x="850" y="444" class="attr">+ address: String?</text>
<text x="850" y="474" class="attr">+ city: String?</text>
<text x="850" y="504" class="attr">+ region: String?</text>
<text x="850" y="534" class="attr">+ postalCode: String?</text>
<text x="850" y="564" class="attr">+ serviceRadius: Int?</text>
<text x="850" y="594" class="attr">+ isAvailable: Boolean</text>
<text x="850" y="624" class="attr">+ rating: Decimal</text>
<text x="850" y="654" class="attr">+ totalReviews: Int</text>
<text x="850" y="684" class="attr">+ totalBookings: Int</text>
<text x="850" y="714" class="attr">+ isVerified: Boolean</text>
<text x="850" y="744" class="attr">+ profileImage: String?</text>
<text x="850" y="774" class="attr">+ specialties: Json?</text>
<text x="850" y="804" class="attr">+ availability: Json?</text>
<text x="850" y="834" class="attr">+ createdAt: DateTime</text>
<text x="850" y="864" class="attr">+ updatedAt: DateTime</text>
  </g>

  <g>
    <rect x="1610" y="120" width="470" height="374" class="box class" />
    <line x1="1610" y1="180" x2="2080" y2="180" class="separator" />
    <text x="1845" y="156" class="title"><tspan x="1845" dy="0">Category</tspan></text>
    <text x="1630" y="204" class="attr">+ id: String</text>
<text x="1630" y="234" class="attr">+ name: String</text>
<text x="1630" y="264" class="attr">+ slug: String</text>
<text x="1630" y="294" class="attr">+ description: String?</text>
<text x="1630" y="324" class="attr">+ icon: String?</text>
<text x="1630" y="354" class="attr">+ image: String?</text>
<text x="1630" y="384" class="attr">+ isActive: Boolean</text>
<text x="1630" y="414" class="attr">+ displayOrder: Int</text>
<text x="1630" y="444" class="attr">+ parentId: String?</text>
<text x="1630" y="474" class="attr">+ createdAt: DateTime</text>
  </g>

  <g>
    <rect x="2300" y="120" width="480" height="404" class="box class" />
    <line x1="2300" y1="180" x2="2780" y2="180" class="separator" />
    <text x="2540" y="156" class="title"><tspan x="2540" dy="0">Service</tspan></text>
    <text x="2320" y="204" class="attr">+ id: String</text>
<text x="2320" y="234" class="attr">+ providerId: String</text>
<text x="2320" y="264" class="attr">+ categoryId: String?</text>
<text x="2320" y="294" class="attr">+ name: String</text>
<text x="2320" y="324" class="attr">+ description: String?</text>
<text x="2320" y="354" class="attr">+ price: Decimal</text>
<text x="2320" y="384" class="attr">+ priceType: PriceType</text>
<text x="2320" y="414" class="attr">+ duration: Int?</text>
<text x="2320" y="444" class="attr">+ isActive: Boolean</text>
<text x="2320" y="474" class="attr">+ createdAt: DateTime</text>
<text x="2320" y="504" class="attr">+ updatedAt: DateTime</text>
  </g>

  <g>
    <rect x="650" y="910" width="510" height="524" class="box class" />
    <line x1="650" y1="970" x2="1160" y2="970" class="separator" />
    <text x="905" y="946" class="title"><tspan x="905" dy="0">Booking</tspan></text>
    <text x="670" y="994" class="attr">+ id: String</text>
<text x="670" y="1024" class="attr">+ clientId: String</text>
<text x="670" y="1054" class="attr">+ serviceId: String</text>
<text x="670" y="1084" class="attr">+ bookingDate: DateTime</text>
<text x="670" y="1114" class="attr">+ bookingTime: String</text>
<text x="670" y="1144" class="attr">+ duration: Int</text>
<text x="670" y="1174" class="attr">+ status: BookingStatus</text>
<text x="670" y="1204" class="attr">+ address: String</text>
<text x="670" y="1234" class="attr">+ city: String</text>
<text x="670" y="1264" class="attr">+ phone: String?</text>
<text x="670" y="1294" class="attr">+ notes: String?</text>
<text x="670" y="1324" class="attr">+ totalAmount: Decimal?</text>
<text x="670" y="1354" class="attr">+ paymentStatus: PaymentStatus</text>
<text x="670" y="1384" class="attr">+ createdAt: DateTime</text>
<text x="670" y="1414" class="attr">+ updatedAt: DateTime</text>
  </g>

  <g>
    <rect x="1430" y="920" width="470" height="374" class="box class" />
    <line x1="1430" y1="980" x2="1900" y2="980" class="separator" />
    <text x="1665" y="956" class="title"><tspan x="1665" dy="0">Review</tspan></text>
    <text x="1450" y="1004" class="attr">+ id: String</text>
<text x="1450" y="1034" class="attr">+ bookingId: String</text>
<text x="1450" y="1064" class="attr">+ clientId: String</text>
<text x="1450" y="1094" class="attr">+ providerId: String</text>
<text x="1450" y="1124" class="attr">+ serviceId: String?</text>
<text x="1450" y="1154" class="attr">+ rating: Int</text>
<text x="1450" y="1184" class="attr">+ comment: String?</text>
<text x="1450" y="1214" class="attr">+ isVerified: Boolean</text>
<text x="1450" y="1244" class="attr">+ createdAt: DateTime</text>
<text x="1450" y="1274" class="attr">+ updatedAt: DateTime</text>
  </g>

  <g>
    <rect x="2140" y="930" width="450" height="314" class="box class" />
    <line x1="2140" y1="990" x2="2590" y2="990" class="separator" />
    <text x="2365" y="966" class="title"><tspan x="2365" dy="0">Payment</tspan></text>
    <text x="2160" y="1014" class="attr">+ id: String</text>
<text x="2160" y="1044" class="attr">+ bookingId: String?</text>
<text x="2160" y="1074" class="attr">+ userId: String</text>
<text x="2160" y="1104" class="attr">+ amount: Decimal</text>
<text x="2160" y="1134" class="attr">+ paymentMethod: String?</text>
<text x="2160" y="1164" class="attr">+ status: PaymentStatus</text>
<text x="2160" y="1194" class="attr">+ transactionId: String?</text>
<text x="2160" y="1224" class="attr">+ createdAt: DateTime</text>
  </g>

  <g>
    <rect x="110" y="1640" width="500" height="284" class="box class" />
    <line x1="110" y1="1700" x2="610" y2="1700" class="separator" />
    <text x="360" y="1676" class="title"><tspan x="360" dy="0">VerificationRequest</tspan></text>
    <text x="130" y="1724" class="attr">+ id: String</text>
<text x="130" y="1754" class="attr">+ userId: String</text>
<text x="130" y="1784" class="attr">+ documents: Json?</text>
<text x="130" y="1814" class="attr">+ status: String</text>
<text x="130" y="1844" class="attr">+ reviewedBy: String?</text>
<text x="130" y="1874" class="attr">+ reviewedAt: DateTime?</text>
<text x="130" y="1904" class="attr">+ createdAt: DateTime</text>
  </g>

  <g>
    <rect x="860" y="1640" width="460" height="314" class="box class" />
    <line x1="860" y1="1700" x2="1320" y2="1700" class="separator" />
    <text x="1090" y="1676" class="title"><tspan x="1090" dy="0">Subscription</tspan></text>
    <text x="880" y="1724" class="attr">+ id: String</text>
<text x="880" y="1754" class="attr">+ userId: String</text>
<text x="880" y="1784" class="attr">+ plan: String</text>
<text x="880" y="1814" class="attr">+ status: String</text>
<text x="880" y="1844" class="attr">+ startDate: DateTime</text>
<text x="880" y="1874" class="attr">+ endDate: DateTime</text>
<text x="880" y="1904" class="attr">+ subscriptionPlanId: String?</text>
<text x="880" y="1934" class="attr">+ createdAt: DateTime</text>
  </g>

  <g>
    <rect x="1570" y="1640" width="500" height="404" class="box class" />
    <line x1="1570" y1="1700" x2="2070" y2="1700" class="separator" />
    <text x="1820" y="1676" class="title"><tspan x="1820" dy="0">SubscriptionPlan</tspan></text>
    <text x="1590" y="1724" class="attr">+ id: String</text>
<text x="1590" y="1754" class="attr">+ name: String</text>
<text x="1590" y="1784" class="attr">+ slug: String</text>
<text x="1590" y="1814" class="attr">+ description: String?</text>
<text x="1590" y="1844" class="attr">+ price: Decimal</text>
<text x="1590" y="1874" class="attr">+ duration: Int</text>
<text x="1590" y="1904" class="attr">+ features: Json</text>
<text x="1590" y="1934" class="attr">+ isActive: Boolean</text>
<text x="1590" y="1964" class="attr">+ displayOrder: Int</text>
<text x="1590" y="1994" class="attr">+ createdAt: DateTime</text>
<text x="1590" y="2024" class="attr">+ updatedAt: DateTime</text>
  </g>

  <g>
    <rect x="2310" y="1640" width="470" height="344" class="box class" />
    <line x1="2310" y1="1700" x2="2780" y2="1700" class="separator" />
    <text x="2545" y="1676" class="title"><tspan x="2545" dy="0">Notification</tspan></text>
    <text x="2330" y="1724" class="attr">+ id: String</text>
<text x="2330" y="1754" class="attr">+ userId: String</text>
<text x="2330" y="1784" class="attr">+ title: String</text>
<text x="2330" y="1814" class="attr">+ message: String</text>
<text x="2330" y="1844" class="attr">+ type: String</text>
<text x="2330" y="1874" class="attr">+ read: Boolean</text>
<text x="2330" y="1904" class="attr">+ link: String?</text>
<text x="2330" y="1934" class="attr">+ privateRecipients: Json?</text>
<text x="2330" y="1964" class="attr">+ createdAt: DateTime</text>
  </g>

  <g>
    <rect x="2990" y="120" width="260" height="176" class="box enum" />
    <line x1="2990" y1="180" x2="3250" y2="180" class="separator" />
    <text x="3120" y="156" class="title"><tspan x="3120" dy="0">&lt;&lt;enumeration&gt;&gt;</tspan><tspan x="3120" dy="28">Role</tspan></text>
    <text x="3010" y="204" class="attr">CLIENT</text>
<text x="3010" y="238" class="attr">PRESTATAIRE</text>
<text x="3010" y="272" class="attr">ADMIN</text>
  </g>

  <g>
    <rect x="2990" y="430" width="260" height="176" class="box enum" />
    <line x1="2990" y1="490" x2="3250" y2="490" class="separator" />
    <text x="3120" y="466" class="title"><tspan x="3120" dy="0">&lt;&lt;enumeration&gt;&gt;</tspan><tspan x="3120" dy="28">PriceType</tspan></text>
    <text x="3010" y="514" class="attr">FIXED</text>
<text x="3010" y="548" class="attr">HOURLY</text>
<text x="3010" y="582" class="attr">QUOTE</text>
  </g>

  <g>
    <rect x="2990" y="820" width="290" height="278" class="box enum" />
    <line x1="2990" y1="880" x2="3280" y2="880" class="separator" />
    <text x="3135" y="856" class="title"><tspan x="3135" dy="0">&lt;&lt;enumeration&gt;&gt;</tspan><tspan x="3135" dy="28">BookingStatus</tspan></text>
    <text x="3010" y="904" class="attr">PENDING</text>
<text x="3010" y="938" class="attr">CONFIRMED</text>
<text x="3010" y="972" class="attr">IN_PROGRESS</text>
<text x="3010" y="1006" class="attr">COMPLETED</text>
<text x="3010" y="1040" class="attr">CANCELLED</text>
<text x="3010" y="1074" class="attr">REJECTED</text>
  </g>

  <g>
    <rect x="2990" y="1290" width="290" height="176" class="box enum" />
    <line x1="2990" y1="1350" x2="3280" y2="1350" class="separator" />
    <text x="3135" y="1326" class="title"><tspan x="3135" dy="0">&lt;&lt;enumeration&gt;&gt;</tspan><tspan x="3135" dy="28">PaymentStatus</tspan></text>
    <text x="3010" y="1374" class="attr">PENDING</text>
<text x="3010" y="1408" class="attr">PAID</text>
<text x="3010" y="1442" class="attr">REFUNDED</text>
  </g>
</svg>