<?xml version="1.0" encoding="UTF-8"?>
<svg xmlns="http://www.w3.org/2000/svg" width="3200" height="2300" viewBox="0 0 3200 2300">
  <defs>
    <pattern id="grid" width="24" height="24" patternUnits="userSpaceOnUse">
      <path d="M 24 0 L 0 0 0 24" fill="none" stroke="#e7e7e7" stroke-width="1" />
    </pattern>
    <filter id="softShadow" x="-10%" y="-10%" width="120%" height="120%">
      <feDropShadow dx="8" dy="8" stdDeviation="4" flood-color="#c7c7c7" flood-opacity="0.38"/>
    </filter>
  </defs>
  <style>
    text { font-family: Arial, Helvetica, sans-serif; fill: #111; }
    .frame-title { font-size: 42px; font-weight: 700; }
    .actor-label { font-size: 36px; font-weight: 700; text-anchor: middle; }
    .actor circle, .actor line { stroke: #111; stroke-width: 3; fill: none; }
    .assoc { stroke: #111; stroke-width: 2.8; }
    .usecase ellipse { fill: #fff; stroke: #111; stroke-width: 2.3; filter: url(#softShadow); }
    .usecase-label { font-size: 28px; font-weight: 600; text-anchor: middle; dominant-baseline: middle; }
    .mini-label { font-size: 22px; font-weight: 500; text-anchor: middle; dominant-baseline: middle; }
    .include, .extend { stroke: #444; stroke-width: 2.1; stroke-dasharray: 9 7; fill: none; }
    .relation-label { font-size: 20px; fill: #333; }
  </style>
  <rect width="100%" height="100%" fill="#fbfbfb"/>
  <rect width="100%" height="100%" fill="url(#grid)"/>
  <rect x="470" y="110" width="2580" height="2030" fill="#fff" stroke="#666" stroke-width="3"/>
  <text x="1760" y="170" text-anchor="middle" class="frame-title">Gestion Client</text>
  <line class="assoc" x1="180" y1="1020" x2="848.84" y2="314.00" />
<line class="assoc" x1="180" y1="1020" x2="813.00" y2="598.00" />
<line class="assoc" x1="180" y1="1020" x2="665.00" y2="912.22" />
<line class="assoc" x1="180" y1="1020" x2="660.00" y2="1126.67" />
<line class="assoc" x1="180" y1="1020" x2="817.28" y2="1436.00" />
<line class="assoc" x1="180" y1="1020" x2="845.05" y2="1722.00" />
<line class="assoc" x1="180" y1="1020" x2="1436.85" y2="1436.00" />
<line class="assoc" x1="180" y1="1020" x2="855.31" y2="1836.00" />
<line class="assoc" x1="180" y1="1020" x2="1491.63" y2="1722.00" />
  
  <g class="usecase">
    <ellipse cx="900" cy="260" rx="190" ry="54" />
    <text x="900" y="260" class="usecase-label"><tspan x="900" dy="0">Se connecter</tspan></text>
  </g>

  <g class="usecase">
    <ellipse cx="900" cy="540" rx="230" ry="58" />
    <text x="900" y="540" class="usecase-label"><tspan x="900" dy="0">Parcourir catégories</tspan></text>
  </g>

  <g class="usecase">
    <ellipse cx="900" cy="860" rx="235" ry="58" />
    <text x="900" y="860" class="usecase-label"><tspan x="900" dy="0">Rechercher prestataire</tspan></text>
  </g>

  <g class="usecase">
    <ellipse cx="900" cy="1180" rx="240" ry="58" />
    <text x="900" y="1164" class="usecase-label"><tspan x="900" dy="0">Consulter profil</tspan><tspan x="900" dy="26">prestataire</tspan></text>
  </g>

  <g class="usecase">
    <ellipse cx="900" cy="1490" rx="190" ry="54" />
    <text x="900" y="1490" class="usecase-label"><tspan x="900" dy="0">Réserver service</tspan></text>
  </g>

  <g class="usecase">
    <ellipse cx="900" cy="1780" rx="220" ry="58" />
    <text x="900" y="1764" class="usecase-label"><tspan x="900" dy="0">Consulter mes</tspan><tspan x="900" dy="26">réservations</tspan></text>
  </g>

  <g class="usecase">
    <ellipse cx="1600" cy="1490" rx="175" ry="54" />
    <text x="1600" y="1490" class="usecase-label"><tspan x="1600" dy="0">Laisser un avis</tspan></text>
  </g>

  <g class="usecase">
    <ellipse cx="900" cy="1890" rx="175" ry="54" />
    <text x="900" y="1890" class="usecase-label"><tspan x="900" dy="0">Gérer profil</tspan></text>
  </g>

  <g class="usecase">
    <ellipse cx="1600" cy="1780" rx="235" ry="58" />
    <text x="1600" y="1780" class="usecase-label"><tspan x="1600" dy="0">Consulter notifications</tspan></text>
  </g>
  
  <g class="usecase mini">
    <ellipse cx="1600" cy="260" rx="155" ry="40" />
    <text x="1600" y="260" class="mini-label"><tspan x="1600" dy="0">Mot de passe oublié</tspan></text>
  </g>
  <g>
    <line class="extend" x1="1445.00" y1="260.00" x2="1090.00" y2="260.00" />
    <line class="extend" x1="1090.00" y1="260.00" x2="1102.12" y2="253.00" />
    <line class="extend" x1="1090.00" y1="260.00" x2="1102.12" y2="267.00" />
    <text x="1212.5" y="248" class="relation-label">&lt;&lt;extend&gt;&gt;</text>
  </g>

  <g class="usecase mini">
    <ellipse cx="1600" cy="780" rx="165" ry="40" />
    <text x="1600" y="780" class="mini-label"><tspan x="1600" dy="0">Filtrer résultats</tspan></text>
  </g>
  <g>
    <line class="extend" x1="1435.00" y1="798.86" x2="1135.00" y2="833.14" />
    <line class="extend" x1="1135.00" y1="833.14" x2="1146.25" y2="824.81" />
    <line class="extend" x1="1135.00" y1="833.14" x2="1147.84" y2="838.72" />
    <text x="1230" y="804" class="relation-label">&lt;&lt;extend&gt;&gt;</text>
  </g>

  <g class="usecase mini">
    <ellipse cx="1600" cy="880" rx="160" ry="40" />
    <text x="1600" y="880" class="mini-label"><tspan x="1600" dy="0">Localiser sur carte</tspan></text>
  </g>
  <g>
    <line class="extend" x1="1440.00" y1="875.43" x2="1135.00" y2="866.71" />
    <line class="extend" x1="1135.00" y1="866.71" x2="1147.32" y2="860.06" />
    <line class="extend" x1="1135.00" y1="866.71" x2="1146.92" y2="874.06" />
    <text x="1232.5" y="859.0714285714286" class="relation-label">&lt;&lt;extend&gt;&gt;</text>
  </g>

  <g class="usecase mini">
    <ellipse cx="2140" cy="830" rx="150" ry="38" />
    <text x="2140" y="830" class="mini-label"><tspan x="2140" dy="0">Définir ma position</tspan></text>
  </g>
  <g>
    <line class="include" x1="1990.00" y1="833.63" x2="1135.00" y2="854.31" />
    <line class="include" x1="1135.00" y1="854.31" x2="1146.95" y2="847.02" />
    <line class="include" x1="1135.00" y1="854.31" x2="1147.29" y2="861.02" />
    <text x="1507.5" y="831.9717741935484" class="relation-label">&lt;&lt;include&gt;&gt;</text>
  </g>

  <g class="usecase mini">
    <ellipse cx="2140" cy="930" rx="170" ry="38" />
    <text x="2140" y="930" class="mini-label"><tspan x="2140" dy="0">Filtrer par distance</tspan></text>
  </g>
  <g>
    <line class="extend" x1="1970.00" y1="920.40" x2="1135.00" y2="873.27" />
    <line class="extend" x1="1135.00" y1="873.27" x2="1147.50" y2="866.96" />
    <line class="extend" x1="1135.00" y1="873.27" x2="1146.71" y2="880.94" />
    <text x="1497.5" y="884.8346774193549" class="relation-label">&lt;&lt;extend&gt;&gt;</text>
  </g>

  <g class="usecase mini">
    <ellipse cx="1600" cy="1120" rx="165" ry="40" />
    <text x="1600" y="1120" class="mini-label"><tspan x="1600" dy="0">Voir services</tspan></text>
  </g>
  <g>
    <line class="extend" x1="1435.00" y1="1134.14" x2="1140.00" y2="1159.43" />
    <line class="extend" x1="1140.00" y1="1159.43" x2="1151.48" y2="1151.42" />
    <line class="extend" x1="1140.00" y1="1159.43" x2="1152.68" y2="1165.37" />
    <text x="1232.5" y="1134.7857142857142" class="relation-label">&lt;&lt;extend&gt;&gt;</text>
  </g>

  <g class="usecase mini">
    <ellipse cx="1600" cy="1220" rx="150" ry="40" />
    <text x="1600" y="1220" class="mini-label"><tspan x="1600" dy="0">Voir avis</tspan></text>
  </g>
  <g>
    <line class="extend" x1="1450.00" y1="1211.43" x2="1140.00" y2="1193.71" />
    <line class="extend" x1="1140.00" y1="1193.71" x2="1152.50" y2="1187.42" />
    <line class="extend" x1="1140.00" y1="1193.71" x2="1151.71" y2="1201.39" />
    <text x="1240" y="1190.5714285714284" class="relation-label">&lt;&lt;extend&gt;&gt;</text>
  </g>

  <g class="usecase mini">
    <ellipse cx="2140" cy="1180" rx="150" ry="38" />
    <text x="2140" y="1180" class="mini-label"><tspan x="2140" dy="0">Calculer itinéraire</tspan></text>
  </g>
  <g>
    <line class="extend" x1="1990.00" y1="1180.00" x2="1140.00" y2="1180.00" />
    <line class="extend" x1="1140.00" y1="1180.00" x2="1152.12" y2="1173.00" />
    <line class="extend" x1="1140.00" y1="1180.00" x2="1152.12" y2="1187.00" />
    <text x="1510" y="1168" class="relation-label">&lt;&lt;extend&gt;&gt;</text>
  </g>

  <g class="usecase mini">
    <ellipse cx="1600" cy="1440" rx="175" ry="40" />
    <text x="1600" y="1440" class="mini-label"><tspan x="1600" dy="0">Choisir date/heure</tspan></text>
  </g>
  <g>
    <line class="include" x1="1425.00" y1="1452.50" x2="1090.00" y2="1476.43" />
    <line class="include" x1="1090.00" y1="1476.43" x2="1101.59" y2="1468.58" />
    <line class="include" x1="1090.00" y1="1476.43" x2="1102.59" y2="1482.55" />
    <text x="1202.5" y="1452.4642857142858" class="relation-label">&lt;&lt;include&gt;&gt;</text>
  </g>

  <g class="usecase mini">
    <ellipse cx="2140" cy="1490" rx="165" ry="38" />
    <text x="2140" y="1490" class="mini-label"><tspan x="2140" dy="0">Renseigner adresse</tspan></text>
  </g>
  <g>
    <line class="include" x1="1975.00" y1="1490.00" x2="1090.00" y2="1490.00" />
    <line class="include" x1="1090.00" y1="1490.00" x2="1102.12" y2="1483.00" />
    <line class="include" x1="1090.00" y1="1490.00" x2="1102.12" y2="1497.00" />
    <text x="1477.5" y="1478" class="relation-label">&lt;&lt;include&gt;&gt;</text>
  </g>

  <g class="usecase mini">
    <ellipse cx="1600" cy="1720" rx="160" ry="40" />
    <text x="1600" y="1720" class="mini-label"><tspan x="1600" dy="0">Annuler réservation</tspan></text>
  </g>
  <g>
    <line class="extend" x1="1440.00" y1="1733.71" x2="1120.00" y2="1761.14" />
    <line class="extend" x1="1120.00" y1="1761.14" x2="1131.48" y2="1753.13" />
    <line class="extend" x1="1120.00" y1="1761.14" x2="1132.68" y2="1767.08" />
    <text x="1225" y="1735.4285714285716" class="relation-label">&lt;&lt;extend&gt;&gt;</text>
  </g>

  <g class="usecase mini">
    <ellipse cx="2140" cy="1590" rx="145" ry="38" />
    <text x="2140" y="1590" class="mini-label"><tspan x="2140" dy="0">Noter service</tspan></text>
  </g>
  <g>
    <line class="include" x1="1995.00" y1="1563.15" x2="1775.00" y2="1522.41" />
    <line class="include" x1="1775.00" y1="1522.41" x2="1788.20" y2="1517.73" />
    <line class="include" x1="1775.00" y1="1522.41" x2="1785.65" y2="1531.50" />
    <text x="1830" y="1530.7777777777778" class="relation-label">&lt;&lt;include&gt;&gt;</text>
  </g>

  <g class="usecase mini">
    <ellipse cx="2140" cy="1690" rx="165" ry="38" />
    <text x="2140" y="1690" class="mini-label"><tspan x="2140" dy="0">Rédiger commentaire</tspan></text>
  </g>
  <g>
    <line class="include" x1="2037.40" y1="1652.00" x2="1745.80" y2="1544.00" />
    <line class="include" x1="1745.80" y1="1544.00" x2="1759.60" y2="1541.65" />
    <line class="include" x1="1745.80" y1="1544.00" x2="1754.74" y2="1554.78" />
    <text x="1836.6" y="1586" class="relation-label">&lt;&lt;include&gt;&gt;</text>
  </g>

  <g class="usecase mini">
    <ellipse cx="1600" cy="1890" rx="145" ry="40" />
    <text x="1600" y="1890" class="mini-label"><tspan x="1600" dy="0">Modifier infos</tspan></text>
  </g>
  <g>
    <line class="extend" x1="1455.00" y1="1890.00" x2="1075.00" y2="1890.00" />
    <line class="extend" x1="1075.00" y1="1890.00" x2="1087.12" y2="1883.00" />
    <line class="extend" x1="1075.00" y1="1890.00" x2="1087.12" y2="1897.00" />
    <text x="1210" y="1878" class="relation-label">&lt;&lt;extend&gt;&gt;</text>
  </g>

  <g class="usecase mini">
    <ellipse cx="2140" cy="1990" rx="165" ry="38" />
    <text x="2140" y="1990" class="mini-label"><tspan x="2140" dy="0">Changer mot de passe</tspan></text>
  </g>
  <g>
    <line class="extend" x1="1975.00" y1="1976.69" x2="1075.00" y2="1904.11" />
    <line class="extend" x1="1075.00" y1="1904.11" x2="1087.65" y2="1898.11" />
    <line class="extend" x1="1075.00" y1="1904.11" x2="1086.52" y2="1912.06" />
    <text x="1470" y="1928.4032258064517" class="relation-label">&lt;&lt;extend&gt;&gt;</text>
  </g>

  <g class="usecase mini">
    <ellipse cx="2140" cy="1780" rx="150" ry="38" />
    <text x="2140" y="1780" class="mini-label"><tspan x="2140" dy="0">Marquer comme lu</tspan></text>
  </g>
  <g>
    <line class="extend" x1="1990.00" y1="1780.00" x2="1835.00" y2="1780.00" />
    <line class="extend" x1="1835.00" y1="1780.00" x2="1847.12" y2="1773.00" />
    <line class="extend" x1="1835.00" y1="1780.00" x2="1847.12" y2="1787.00" />
    <text x="1857.5" y="1768" class="relation-label">&lt;&lt;extend&gt;&gt;</text>
  </g>
  
  <g class="actor">
    <circle cx="180" cy="910" r="48" />
    <line x1="180" y1="958" x2="180" y2="1094" />
    <line x1="110" y1="1020" x2="250" y2="1020" />
    <line x1="180" y1="1094" x2="118" y2="1186" />
    <line x1="180" y1="1094" x2="242" y2="1186" />
    <text x="180" y="1242" class="actor-label">Client</text>
  </g>
</svg>